<?xml version="1.0" encoding="UTF-8" standalone="no"?>
<!-- Created with Inkscape (http://www.inkscape.org/) -->

<svg
   width="794.03699mm"
   height="706.6015mm"
   viewBox="0 0 794.03699 706.6015"
   version="1.1"
   id="svg1"
   xml:space="preserve"
   sodipodi:docname="WV Soft logo v1.svg"
   inkscape:version="1.3.2 (091e20e, 2023-11-25, custom)"
   xmlns:inkscape="http://www.inkscape.org/namespaces/inkscape"
   xmlns:sodipodi="http://sodipodi.sourceforge.net/DTD/sodipodi-0.dtd"
   xmlns="http://www.w3.org/2000/svg"
   xmlns:svg="http://www.w3.org/2000/svg"><sodipodi:namedview
     id="namedview1"
     pagecolor="#ffffff"
     bordercolor="#000000"
     borderopacity="0.25"
     inkscape:showpageshadow="2"
     inkscape:pageopacity="0.0"
     inkscape:pagecheckerboard="0"
     inkscape:deskcolor="#d1d1d1"
     inkscape:document-units="mm"
     showguides="true"
     inkscape:zoom="0.12600872"
     inkscape:cx="2214.1325"
     inkscape:cy="1551.4799"
     inkscape:window-width="1366"
     inkscape:window-height="745"
     inkscape:window-x="-8"
     inkscape:window-y="-8"
     inkscape:window-maximized="1"
     inkscape:current-layer="layer1" /><defs
     id="defs1" /><g
     inkscape:label="Layer 1"
     inkscape:groupmode="layer"
     id="layer1"
     transform="translate(-514.69123,322.30269)"><path
       style="fill:#ff47a6;fill-opacity:1;stroke-width:5.7504"
       d="m 738.02547,381.02499 c -7.18933,-4.8396 -9.75038,-10.48873 -7.15459,-15.78169 2.94201,-5.99887 8.93974,-9.75084 16.03987,-10.03399 8.57816,-0.34214 12.57055,3.37267 12.57055,11.69626 0,7.23728 -2.89935,12.09596 -9.14555,15.32602 -5.71141,2.95346 -6.20181,2.90539 -12.31028,-1.2066 z m 274.77883,-31.74491 c -1.6735,-0.91322 -9.2048,-7.7037 -16.73598,-15.09003 -7.53124,-7.38633 -15.73832,-14.19434 -18.23796,-15.12896 -8.57299,-3.20538 -28.16236,-3.60647 -41.74336,-0.85462 -16.15241,3.27295 -23.30821,5.71584 -41.19581,14.06375 l -14.45386,6.74545 -3.22022,-4.03155 c -1.77118,-2.21735 -6.37489,-9.69684 -10.23048,-16.62107 -17.15701,-30.8119 -30.12675,-29.83819 -64.21189,4.82068 -14.08647,14.32361 -17.67599,17.19898 -21.47062,17.19898 -4.2201,0 -11.17262,-5.1362 -11.17262,-8.25389 0,-0.66613 2.41085,-6.09928 5.35747,-12.0736 7.22049,-14.63971 9.05401,-26.63021 6.1799,-40.4145 -2.02489,-9.71139 -10.05365,-25.46576 -14.3224,-28.10398 -0.83381,-0.51524 -3.00442,-4.01148 -4.8235,-7.76925 -7.20646,-14.88658 -15.1289,-16.04333 -34.05185,-4.97191 -15.33379,8.97143 -20.4115,10.53697 -25.55305,7.87816 -2.26077,-1.16911 -5.14488,-3.60245 -6.40923,-5.4075 -2.00332,-2.86019 -2.02356,-3.94052 -0.15698,-8.40714 1.1778,-2.81885 4.82729,-8.36362 8.11002,-12.32173 6.02044,-7.25908 10.06757,-13.85858 9.09506,-14.83109 -0.28982,-0.28982 -5.99393,-1.95697 -12.67532,-3.70429 -6.68133,-1.74732 -17.75298,-5.91331 -24.60366,-9.25777 -21.05279,-10.27795 -27.68012,-21.42411 -25.64586,-43.13262 1.7449,-18.62061 -2.33909,-21.79404 -25.91492,-20.13682 -18.04378,1.26835 -28.94188,-1.4046 -34.97888,-8.57917 -5.26535,-6.25754 -4.47738,-15.28231 1.80626,-20.68729 3.66266,-3.150496 5.03045,-3.443146 11.12466,-2.380256 3.82172,0.66653 15.16444,1.25188 25.20607,1.30076 21.38505,0.10408 31.1425,-2.51237 39.7926,-10.67045 4.95512,-4.67331 5.41446,-5.77414 4.6833,-11.22509 -0.99793,-7.44009 -4.38894,-11.90602 -18.04252,-23.761806 -21.81615,-18.943541 -39.89178,-26.909277 -61.42697,-27.07015 -11.19666,-0.08361 -15.82016,0.651613 -25.35967,4.032842 -19.47884,6.904171 -40.82668,4.670377 -49.0777,-5.1354 -4.6921,-5.576238 -4.97071,-10.280973 -0.91437,-15.4378218 6.10732,-7.764155 24.55944,-9.17496398 55.15932,-4.217355 15.35576,2.487836 24.74938,2.960599 52.9038,2.66255 32.36882,-0.342666 34.66841,-0.559284 42.23162,-3.977804 14.79854,-6.688917 20.16855,-16.9194762 17.82498,-33.9592102 -0.95837,-6.968058 -2.21477,-9.052767 -11.21489,-18.608396 -12.72403,-13.509374 -16.05978,-18.259273 -18.46091,-26.287222 -1.65618,-5.53725 -1.57297,-6.916782 0.61885,-10.261922 3.01833,-4.60653 11.49942,-8.444922 18.65948,-8.444922 2.84081,0 13.08181,1.711641 22.75778,3.803648 20.41208,4.413213 27.46598,4.703108 35.25449,1.448842 7.5091,-3.137487 12.10942,-7.633857 16.27047,-15.902717 5.49542,-10.92047 7.17218,-17.64023 7.17218,-28.74323 0,-18.97839 -7.66522,-30.40126 -28.62393,-42.65609 -14.80487,-8.65656 -24.30988,-16.32245 -26.3523,-21.25332 -2.67066,-6.44752 -0.91288,-13.98918 4.46035,-19.13708 l 4.48727,-4.29907 6.58743,2.51576 c 9.39454,3.58782 14.71308,8.64942 29.01191,27.61055 20.28218,26.89527 36.77858,36.29914 63.4119,36.14827 20.72611,-0.11742 41.75279,-9.68473 51.81616,-23.57677 5.16289,-7.12718 5.50009,-11.49032 2.7353,-35.39375 -0.96791,-8.36823 -1.26785,-18.49581 -0.66653,-22.50574 2.08429,-13.89892 15.22021,-23.17199 26.27921,-18.55126 7.72463,3.22757 10.88229,11.78877 12.57549,34.09529 2.03978,26.87246 4.87622,30.3049 28.47368,34.45662 22.41184,3.94312 31.29781,1.375 60.3478,-17.44099 23.63273,-15.30719 28.72083,-17.62686 33.37983,-15.21811 6.2592,3.23608 8.7137,6.36639 8.708,11.10582 -0.01,5.19402 -2.3323,9.49877 -12.8594,23.79881 -5.4208,7.36362 -6.96,10.68728 -6.6097,14.27276 0.7138,7.30753 8.7223,10.46463 26.9612,10.62864 12.9878,0.11679 15.5072,-0.32685 23.1385,-4.07454 4.7101,-2.31308 12.2058,-7.79034 16.6572,-12.17168 11.3188,-11.14083 25.1615,-33.05339 29.0608,-46.00257 6.1229,-20.33367 11.2278,-27.17363 19.6675,-26.3522 4.2865,0.41719 5.5665,1.57733 8.8907,8.0583 3.238,6.3129 3.8721,9.59945 3.8163,19.77897 -0.084,15.3761 -4.7752,26.48559 -18.5836,44.01201 -5.2767,6.69737 -9.9988,13.79007 -10.4936,15.76155 -1.8625,7.42075 0.6071,17.1036 7.1793,28.14832 13.8449,23.26711 16.1815,28.89479 17.2754,41.607632 2.7267,31.687112 9.2841,52.837761 16.9804,54.769406 5.6394,1.415409 13.1018,-2.814654 19.29,-10.934517 2.7137,-3.560912 6.7513,-7.558469 8.9725,-8.883459 8.7818,-5.238695 22.6948,-1.073128 27.4524,8.219224 4.6628,9.107529 -1.4732,15.204736 -19.1337,19.012575 -7.1026,1.531401 -13.1237,8.666663 -13.0844,15.505527 0.073,12.7640252 11.7231,27.471206 24.5957,31.05064 3.6085,1.003376 9.5281,2.766656 13.1548,3.918392 3.6267,1.151742 14.9235,2.77202 25.1041,3.600618 22.5998,1.839421 31.3033,4.517756 37.4574,11.526855 5.7638,6.564685 5.9968,12.450713 0.7399,18.69812 -5.4475,6.474041 -11.8108,7.262321 -32.0623,3.971831 -19.4759,-3.164469 -37.9339,-2.476998 -46.7821,1.74242 -7.7704,3.70548 -12.3038,13.33437 -10.9792,23.31995 2.2827,17.207366 15.1898,43.472306 28.9514,58.913796 7.9293,8.89714 27.3982,24.86984 49.4502,40.56996 12.8387,9.14055 18.3446,15.75211 18.3546,22.04029 0.012,5.44068 -4.4302,11.78153 -10.1603,14.51412 -10.066,4.80009 -20.1309,2.13438 -26.5412,-7.02946 -8.11,-11.59361 -24.9855,-30.66055 -32.1465,-36.32102 -10.8065,-8.54205 -15.5584,-10.7038 -25.5129,-11.60644 -12.4966,-1.13315 -22.6695,2.59573 -30.0946,11.03115 -6.9067,7.84629 -8.6807,13.14815 -11.7747,35.18942 -3.8134,27.16569 -3.9896,27.49824 -24.6585,46.55524 -4.7824,4.40952 -4.3855,11.21155 1.1652,19.964 4.0681,6.41469 26.1785,29.40036 41.5852,43.23134 4.8375,4.34287 5.556,5.87645 5.556,11.86048 0,13.7959 -12.3089,18.71456 -21.3005,8.51175 -2.0919,-2.37383 -7.847,-9.24308 -12.789,-15.26502 -13.9473,-16.99524 -35.5797,-36.85045 -46.5957,-42.76767 -8.1417,-4.37324 -11.4616,-5.29307 -19.2198,-5.3251 -8.0085,-0.0345 -10.3414,0.63427 -15.9753,4.56949 -12.2522,8.55815 -21.0059,31.61714 -19.0814,50.26408 0.7947,7.70024 0.5722,8.41933 -3.7219,12.03265 -3.4862,2.93345 -6.2499,3.83201 -11.6773,3.7967 -3.9106,-0.023 -8.4796,-0.79344 -10.1532,-1.7066 z M 623.39688,305.05065 c -3.19555,-4.56237 -2.97583,-14.68532 0.43071,-19.85188 5.84965,-8.87131 23.45841,-18.91916 42.13536,-24.04311 6.3868,-1.75214 11.9851,-2.81304 12.44065,-2.35749 1.36951,1.36952 -15.6408,30.20363 -22.24312,37.70416 -7.4378,8.44981 -14.28831,11.92973 -23.48469,11.92973 -5.41659,0 -7.42279,-0.73105 -9.27919,-3.38141 z M 1226.5695,-54.483724 c 0,-0.50224 0.7668,-2.408624 1.704,-4.236423 3.5324,-6.888898 11.6861,-13.651368 25.6758,-21.29469 7.946,-4.341362 17.8151,-11.225631 21.9313,-15.298369 9.104,-9.008014 14.6037,-10.950174 21.6028,-7.628864 5.3159,2.52257 11.2449,12.368734 11.2449,18.674162 0,5.45177 -7.9247,12.33501 -14.2012,12.33501 -5.5808,0 -13.7184,2.399527 -37.5284,11.065972 -13.4815,4.907017 -30.4292,8.462178 -30.4292,6.383202 z M 1123.7723,-278.16996 c -5.5275,-10.94687 -5.909,-23.43988 -1.0503,-34.40385 5.455,-12.30978 11.9795,-13.01072 15.7162,-1.68842 3.1675,9.59777 -1.172,33.7872 -7.453,41.5438 l -2.747,3.39253 z"
       id="path135"
       inkscape:export-filename="..\Code\West Van Soft\static\splat.png"
       inkscape:export-xdpi="300"
       inkscape:export-ydpi="300" /></g></svg>
