<?xml version="1.0" encoding="UTF-8" standalone="no"?>
<!-- Created with Inkscape (http://www.inkscape.org/) -->

<svg
   width="493.37027mm"
   height="164.32961mm"
   viewBox="0 0 493.37027 164.32961"
   version="1.1"
   id="svg1"
   xml:space="preserve"
   sodipodi:docname="WV Soft logo v1.svg"
   inkscape:version="1.3.2 (091e20e, 2023-11-25, custom)"
   xmlns:inkscape="http://www.inkscape.org/namespaces/inkscape"
   xmlns:sodipodi="http://sodipodi.sourceforge.net/DTD/sodipodi-0.dtd"
   xmlns="http://www.w3.org/2000/svg"
   xmlns:svg="http://www.w3.org/2000/svg"><sodipodi:namedview
     id="namedview1"
     pagecolor="#ffffff"
     bordercolor="#000000"
     borderopacity="0.25"
     inkscape:showpageshadow="2"
     inkscape:pageopacity="0.0"
     inkscape:pagecheckerboard="0"
     inkscape:deskcolor="#d1d1d1"
     inkscape:document-units="mm"
     showguides="true"
     inkscape:zoom="0.25201744"
     inkscape:cx="3368.8145"
     inkscape:cy="196.41498"
     inkscape:window-width="1366"
     inkscape:window-height="745"
     inkscape:window-x="-8"
     inkscape:window-y="-8"
     inkscape:window-maximized="1"
     inkscape:current-layer="layer1" /><defs
     id="defs1" /><g
     inkscape:label="Layer 1"
     inkscape:groupmode="layer"
     id="layer1"
     transform="translate(-685.89803,50.976077)"><g
       id="text1"
       style="font-size:46.0767px;line-height:0.95;font-family:'Courier New';-inkscape-font-specification:'Courier New';text-align:center;letter-spacing:0.0987358px;text-anchor:middle;fill:#f9f9f9;stroke-width:1.86588;stroke-linecap:round;stroke-linejoin:round"
       aria-label="I scream, you scream,&#10;we all scream for...&#10;"><path
         style="font-family:'Orange Juice';-inkscape-font-specification:'Orange Juice'"
         d="m 810.31163,-50.299104 q 0.69115,0.645074 0.59899,1.658761 -0.59899,5.298821 -0.7833,10.781948 -0.13823,5.483127 -0.0461,9.077109 0.13823,3.547906 0.41469,8.201653 0.0461,0.737227 -0.41469,1.197994 -0.46076,0.41469 -1.15191,0.506843 -0.13823,0.04608 -0.27646,0.04608 -0.64508,0 -1.15192,-0.322537 -0.7833,-0.460767 -0.92154,-1.336224 -0.7833,-4.054749 -1.15191,-13.638703 -0.36862,-9.583953 0.23038,-15.20531 0.0922,-0.829381 1.05977,-1.290148 0.96761,-0.460767 2.07345,-0.322537 0.96761,0.09215 1.52053,0.645074 z m 20.0104,14.007316 q 2.02737,1.843068 2.81068,3.041063 1.42838,2.073451 1.42838,4.515516 0,2.856755 -1.65877,5.16059 -1.79699,2.488142 -4.28513,2.488142 -3.13321,0 -4.69982,-2.994986 -1.05977,-1.981298 -1.05977,-3.962596 0,-0.55292 0.27646,-0.96761 0.27646,-0.414691 0.69115,-0.460767 0.46077,-0.04608 0.82939,0.322537 0.41469,0.368613 0.59899,1.197994 0.96761,3.916519 2.81068,3.916519 0.73723,0 1.3823,-1.013687 0.73723,-1.197994 0.73723,-3.133216 0,-1.290147 -0.55292,-2.442065 -0.50685,-1.151917 -1.05977,-1.750914 -0.50684,-0.645074 -1.61268,-1.704838 -0.87546,-0.829381 -1.33622,-1.336224 -0.46077,-0.506844 -1.05977,-1.336225 -0.599,-0.875457 -0.87546,-1.796991 -0.27646,-0.96761 -0.27646,-2.073451 0,-2.718525 1.52054,-4.60767 1.70483,-2.119528 4.51551,-2.119528 2.67245,0 4.10083,2.718525 1.01369,1.843068 1.01369,3.686136 0,0.921534 -0.46077,1.382301 -0.41469,0.460767 -1.05977,0.460767 -0.50684,0 -1.01368,-0.230384 -0.50685,-0.230383 -0.87546,-0.598997 -0.32254,-0.41469 -0.32254,-0.875457 0,-1.197994 -0.27646,-2.442065 -0.32253,-1.382301 -0.73722,-1.382301 -0.69116,0 -1.47446,1.244071 -0.73723,1.244071 -0.73723,3.087139 0,0.737227 0.41469,1.474454 0.46077,0.737227 0.92154,1.197994 0.46077,0.460767 1.3823,1.336224 z m 18.43725,7.879116 q -0.18431,2.948909 -1.79699,5.114513 -1.61269,2.165605 -3.59398,2.165605 -1.3823,0 -2.5803,-0.921534 -1.19799,-0.96761 -2.11953,-2.672448 -0.92153,-1.750915 -1.42837,-4.100826 -0.50685,-2.488142 -0.50685,-5.390974 0,-5.897818 1.93522,-9.537877 1.93522,-3.640059 4.88413,-3.640059 1.3823,0 2.39599,0.691151 1.05977,0.69115 1.56661,1.704837 0.55292,1.013688 0.82938,1.935222 0.27646,0.921534 0.27646,1.612684 0,1.750915 -1.19799,1.843068 -0.55292,0.04608 -1.05977,-0.368613 -0.50684,-0.414691 -0.599,-0.921534 -0.55292,-3.77829 -1.84306,-3.77829 -0.23039,0 -0.50685,0.322537 -0.23038,0.322537 -0.55292,1.059764 -0.32253,0.737227 -0.59899,1.796992 -0.92154,3.409675 -0.92154,7.418348 0,4.054749 0.73723,7.234042 0.27646,1.10584 0.55292,1.843068 0.27646,0.69115 0.46077,0.921533 0.23038,0.230384 0.36861,0.230384 0.7833,0 1.42838,-0.737227 0.64507,-0.737227 1.01368,-1.750915 0.36862,-1.059764 0.50685,-2.303835 0.0922,-0.69115 0.46077,-1.013687 0.41469,-0.322537 0.82938,-0.27646 0.46076,0.04608 0.7833,0.460767 0.32254,0.41469 0.27646,1.059764 z m 13.23058,4.054749 q 0.55292,0.322537 0.32254,0.829381 -0.23038,0.598997 -1.33622,1.151917 -1.10584,0.506844 -1.70484,0.414691 -0.92154,-0.184307 -3.31752,-2.211682 0.0922,1.013687 0.32253,3.455752 l 0.0461,0.276461 q 0.0461,0.460767 -0.32254,0.82938 -0.32253,0.368614 -0.87545,0.460767 -0.18431,0.04608 -0.36862,0.04608 -1.47445,0 -1.9813,-1.704838 -0.82938,-2.856755 -1.47445,-12.256402 -0.64507,-9.4918 -0.23038,-14.37593 0,-0.184306 0.13823,-0.230383 0.87545,-0.55292 2.44206,-0.368614 1.65876,0.184307 3.27145,1.105841 2.34991,1.290148 3.77829,3.640059 1.65876,2.764602 1.65876,6.542891 0,3.363599 -1.70484,6.635045 -0.96761,1.843068 -2.16561,3.087139 0.46077,0.460767 1.61269,1.336224 1.15192,0.875457 1.88914,1.336224 z m -6.3125,-4.930206 q 2.07345,-2.626372 2.07345,-7.418349 0,-4.423363 -2.02738,-6.174277 -0.36861,7.740885 -0.0461,13.592626 z m 19.72743,5.344897 q 0.599,0.09215 0.92154,0.460767 0.32253,0.368613 0.32253,0.783303 0,0.414691 -0.27646,0.783304 -0.27646,0.322537 -0.87545,0.414691 -1.79699,0.322536 -5.62136,0.322536 -1.88914,0 -3.13322,-0.82938 -1.24407,-0.829381 -1.47445,-2.211682 -0.55292,-2.948908 -0.69115,-10.18295 -0.0922,-7.234042 0.41469,-11.749558 0.13823,-1.151917 1.75091,-1.244071 0.92154,0 4.46944,0.184307 3.59399,0.13823 4.46944,0.230383 0.50685,0.04608 0.78331,0.552921 0.27646,0.506843 0.27646,1.105841 0,0.322536 -0.0922,0.598997 -0.0461,0.230383 -0.23038,0.41469 -0.13823,0.184307 -0.36861,0.322537 -0.18431,0.09215 -0.41469,0.13823 -1.65876,0.09215 -6.26643,0.13823 -0.23039,3.041062 -0.36862,8.846726 0.69115,0 2.39599,0 2.16561,0.04608 2.71853,0 0.92153,0 0.96761,0.737227 0.0461,0.460767 -0.32254,0.875458 -0.36861,0.41469 -0.82938,0.460767 -0.32254,0 -1.52053,0 -0.87546,0 -2.85676,0 -0.41469,0 -0.59899,0 -0.0461,3.133215 -0.0461,5.252743 0.0922,2.395988 0.23038,2.718525 0.13823,0.322537 1.05977,0.460767 0.64507,0.13823 2.39599,0.230384 1.84306,0.09215 2.81067,0.184307 z m 15.30403,1.474454 q 0,0.506844 -0.50685,0.875457 -0.46076,0.368614 -1.10584,0.460767 -0.50684,0.04608 -0.92153,-0.09215 -0.36862,-0.13823 -0.599,-0.414691 -0.23038,-0.27646 -0.32254,-0.69115 -0.41469,-2.395988 -1.70483,-9.537877 -1.52054,0 -2.39599,0 -0.92154,5.114514 -1.33623,9.722184 -0.13823,1.105841 -1.15191,1.105841 h -0.0461 q -0.55292,0 -1.05977,-0.414691 -0.50684,-0.41469 -0.55292,-1.013687 -0.23038,-3.271446 0.69116,-11.104484 0.92153,-7.786962 2.1656,-12.717169 0.23038,-1.059764 2.07345,-1.105841 0.64508,0 1.29015,0.184307 0.64507,0.13823 1.15192,0.460767 0.50684,0.322537 0.59899,0.737227 1.10584,3.962596 3.73222,23.499116 z m -7.04974,-11.657405 q 0.92154,-0.04608 1.47446,-0.04608 -0.41469,-2.303835 -0.73723,-4.100827 -0.50685,2.442065 -0.82938,4.146903 0.0461,0 0.0922,0 z m 22.0773,11.933865 q 0.18431,1.013687 -0.69115,1.244071 -0.1843,0.04608 -0.36861,0.04608 -0.46077,0 -0.96761,-0.276461 -0.73723,-0.41469 -1.05977,-1.24407 -0.36861,-1.013688 -0.87545,-4.791977 -0.50685,-3.778289 -0.73723,-7.326195 -0.599,4.146903 -0.69115,5.483127 0,0.368614 -0.23038,0.691151 -0.18431,0.322536 -0.46077,0.506843 -0.27646,0.13823 -0.599,0.230384 -0.87546,0.13823 -1.15192,-0.598997 -0.13823,-0.322537 -0.96761,-4.146903 -0.92153,-3.91652 -1.29014,-5.390974 -0.13823,3.225369 0.23038,8.017346 0.41469,4.7459 0.7833,7.280118 0.0461,0.460767 -0.32253,0.82938 -0.32254,0.368614 -0.92154,0.506844 -0.59899,0.09215 -1.15191,-0.13823 -0.50685,-0.230383 -0.64508,-0.82938 -1.05976,-4.791977 -1.42838,-11.196638 -0.46076,-7.510502 0.55292,-11.795635 0.18431,-0.737227 1.29015,-0.921534 0.82938,-0.13823 1.75092,0.184307 0.92153,0.27646 1.24407,0.82938 0.41469,0.737228 1.9813,6.220355 0.0461,0.09215 0.0922,0.322537 0.0461,0.184306 0.0921,0.27646 0.0461,-0.368614 0.0922,-0.460767 1.3823,-6.312508 1.79699,-7.372272 0.41469,-1.105841 1.5666,-0.875457 0.64508,0.09215 1.10585,0.645074 0.46076,0.598997 0.41469,1.428377 -0.0461,2.856756 0.13823,7.234042 0.23038,4.33121 0.59899,8.616342 0.41469,4.239057 0.82938,6.773275 z m 5.53581,-0.55292 q 0,0.09215 0,0.13823 0,0.13823 0,0.230383 -0.0461,1.336225 -0.64508,2.442065 -0.64507,1.290148 -1.47445,1.290148 -0.13823,0 -0.27646,-0.13823 -0.0922,-0.184307 0,-0.552921 0.32254,-1.24407 -0.32254,-1.981298 -0.59899,-0.506843 -0.59899,-1.290147 0,-0.691151 0.46076,-1.197994 0.50685,-0.506844 1.198,-0.506844 0.64507,0 1.10584,0.460767 0.50684,0.41469 0.55292,1.105841 z m 23.55834,-24.00596 q 0.599,0.27646 0.599,0.82938 0,5.805664 -1.19799,9.676107 -0.69115,2.211682 -1.70484,3.455753 -0.50684,0.55292 -1.05976,0.921533 0.0461,4.05475 0.36861,9.399647 0,0.598997 -0.41469,1.013687 -0.32254,0.322537 -0.92154,0.414691 -0.0922,0 -0.23038,0 -0.36861,0 -0.73723,-0.138231 -0.36861,-0.13823 -0.64507,-0.460767 -0.23038,-0.322536 -0.32254,-0.737227 -0.55292,-2.856755 -0.87545,-9.537876 -0.69115,-0.368614 -1.24407,-1.059764 -1.01369,-1.197994 -1.93523,-3.824366 -1.29014,-3.77829 -1.29014,-8.570266 0,-0.552921 0.82938,-0.829381 0.82938,-0.27646 1.65876,-0.27646 0.7833,0 1.24407,0.230384 0.69115,0.322536 0.69115,0.921534 0,4.607669 0.599,7.879115 0.64507,3.271446 1.42837,3.271446 0.13823,0 0.32254,-0.184307 0.23038,-0.184307 0.46077,-0.552921 0.23038,-0.368613 0.46077,-1.059764 0.23038,-0.69115 0.46076,-1.566607 0.82938,-3.593983 0.82938,-8.52419 0,-0.27646 0.18431,-0.460767 0.18431,-0.230383 0.50684,-0.322536 0.36862,-0.138231 0.82938,-0.138231 0.64508,0 1.10584,0.230384 z m 7.24066,0.598997 q 1.19799,0 2.07345,1.105841 0.92153,1.105841 1.3823,2.626372 0.46077,1.520531 0.73723,3.547905 0.27646,2.027375 0.32253,3.363599 0.0461,1.336225 0.0461,2.626372 0,4.515517 -1.05976,8.017346 -0.599,1.981298 -1.47446,3.087138 -1.01369,1.290148 -2.34991,1.290148 -1.70484,0 -2.94891,-1.843068 -1.19799,-1.889145 -1.75091,-4.60767 -0.50685,-2.764602 -0.50685,-5.989971 0,-4.331209 1.198,-8.201652 0.69115,-2.257758 1.65876,-3.501829 1.19799,-1.520531 2.67245,-1.520531 z m 1.29014,19.167906 q 0.50685,-2.534218 0.50685,-5.759587 0,-3.824366 -0.41469,-6.450738 -0.18431,-1.382301 -0.46077,-2.073451 -0.23038,-0.55292 -0.41469,-0.645074 -0.41469,0.460767 -0.87546,3.179292 -0.46076,2.994986 -0.46076,6.174278 0,2.580295 0.50684,5.206667 0.36861,2.257758 0.7833,2.718525 0.41469,-0.460767 0.82938,-2.349912 z m 17.70001,-17.877758 q 0.27646,6.404661 0,11.104484 -0.55292,9.031033 -3.13321,11.657405 -1.05976,1.151917 -2.39599,1.151917 -2.07345,0 -3.40967,-1.566608 -1.01369,-1.197994 -1.88915,-3.824366 -1.01369,-2.902832 -1.29015,-8.247729 -0.27646,-5.16059 0.23039,-9.4918 0.0922,-0.55292 0.59899,-0.783303 0.55292,-0.276461 1.42838,-0.184307 0.36861,0.04608 0.78331,0.184307 0.41469,0.09215 0.7833,0.27646 0.36861,0.184307 0.55292,0.506843 0.23038,0.276461 0.18431,0.598997 -0.46077,5.298821 -0.0461,11.519175 0.41469,6.819351 1.61268,8.063422 0.13823,0.184307 0.27646,0.184307 0.599,0 1.198,-1.935221 0.55292,-1.935222 0.96761,-5.483127 0.73723,-6.312508 0.73723,-14.928851 0,-0.598997 0.41469,-0.875457 0.64507,-0.368613 1.5666,0.184307 0.78331,0.506844 0.78331,1.151917 v 0.04608 q 0,0.09215 0.0461,0.691151 z m 19.50359,8.570265 q 2.02737,1.843068 2.81067,3.041063 1.42838,2.073451 1.42838,4.515516 0,2.856755 -1.65876,5.16059 -1.79699,2.488142 -4.28513,2.488142 -3.13322,0 -4.69983,-2.994986 -1.05976,-1.981298 -1.05976,-3.962596 0,-0.55292 0.27646,-0.96761 0.27646,-0.414691 0.69115,-0.460767 0.46077,-0.04608 0.82938,0.322537 0.41469,0.368613 0.599,1.197994 0.96761,3.916519 2.81068,3.916519 0.73722,0 1.3823,-1.013687 0.73723,-1.197994 0.73723,-3.133216 0,-1.290147 -0.55292,-2.442065 -0.50685,-1.151917 -1.05977,-1.750914 -0.50684,-0.645074 -1.61268,-1.704838 -0.87546,-0.829381 -1.33623,-1.336224 -0.46076,-0.506844 -1.05976,-1.336225 -0.599,-0.875457 -0.87546,-1.796991 -0.27646,-0.96761 -0.27646,-2.073451 0,-2.718525 1.52053,-4.60767 1.70484,-2.119528 4.51552,-2.119528 2.67245,0 4.10082,2.718525 1.01369,1.843068 1.01369,3.686136 0,0.921534 -0.46076,1.382301 -0.4147,0.460767 -1.05977,0.460767 -0.50684,0 -1.01369,-0.230384 -0.50684,-0.230383 -0.87545,-0.598997 -0.32254,-0.41469 -0.32254,-0.875457 0,-1.197994 -0.27646,-2.442065 -0.32254,-1.382301 -0.73723,-1.382301 -0.69115,0 -1.47445,1.244071 -0.73723,1.244071 -0.73723,3.087139 0,0.737227 0.41469,1.474454 0.46077,0.737227 0.92154,1.197994 0.46076,0.460767 1.3823,1.336224 z m 18.43725,7.879116 q -0.18431,2.948909 -1.797,5.114513 -1.61268,2.165605 -3.59398,2.165605 -1.3823,0 -2.58029,-0.921534 -1.198,-0.96761 -2.11953,-2.672448 -0.92154,-1.750915 -1.42838,-4.100826 -0.50684,-2.488142 -0.50684,-5.390974 0,-5.897818 1.93522,-9.537877 1.93522,-3.640059 4.88413,-3.640059 1.3823,0 2.39599,0.691151 1.05976,0.69115 1.5666,1.704837 0.55292,1.013688 0.82938,1.935222 0.27647,0.921534 0.27647,1.612684 0,1.750915 -1.198,1.843068 -0.55292,0.04608 -1.05976,-0.368613 -0.50685,-0.414691 -0.599,-0.921534 -0.55292,-3.77829 -1.84307,-3.77829 -0.23038,0 -0.50684,0.322537 -0.23039,0.322537 -0.55292,1.059764 -0.32254,0.737227 -0.599,1.796992 -0.92153,3.409675 -0.92153,7.418348 0,4.054749 0.73722,7.234042 0.27646,1.10584 0.55292,1.843068 0.27646,0.69115 0.46077,0.921533 0.23038,0.230384 0.36861,0.230384 0.78331,0 1.42838,-0.737227 0.64508,-0.737227 1.01369,-1.750915 0.36861,-1.059764 0.50684,-2.303835 0.0922,-0.69115 0.46077,-1.013687 0.41469,-0.322537 0.82938,-0.27646 0.46077,0.04608 0.78331,0.460767 0.32253,0.41469 0.27646,1.059764 z m 13.23062,4.054749 q 0.5529,0.322537 0.3225,0.829381 -0.2304,0.598997 -1.3362,1.151917 -1.1059,0.506844 -1.7049,0.414691 -0.9215,-0.184307 -3.3175,-2.211682 0.092,1.013687 0.3226,3.455752 l 0.046,0.276461 q 0.046,0.460767 -0.3225,0.82938 -0.3225,0.368614 -0.8755,0.460767 -0.1843,0.04608 -0.3686,0.04608 -1.4744,0 -1.9813,-1.704838 -0.8294,-2.856755 -1.4744,-12.256402 -0.6451,-9.4918 -0.2304,-14.37593 0,-0.184306 0.1382,-0.230383 0.8755,-0.55292 2.4421,-0.368614 1.6587,0.184307 3.2714,1.105841 2.3499,1.290148 3.7783,3.640059 1.6588,2.764602 1.6588,6.542891 0,3.363599 -1.7049,6.635045 -0.9676,1.843068 -2.1656,3.087139 0.4608,0.460767 1.6127,1.336224 1.1519,0.875457 1.8892,1.336224 z m -6.3125,-4.930206 q 2.0734,-2.626372 2.0734,-7.418349 0,-4.423363 -2.0274,-6.174277 -0.3686,7.740885 -0.046,13.592626 z m 19.7274,5.344897 q 0.599,0.09215 0.9215,0.460767 0.3226,0.368613 0.3226,0.783303 0,0.414691 -0.2765,0.783304 -0.2765,0.322537 -0.8755,0.414691 -1.797,0.322536 -5.6213,0.322536 -1.8892,0 -3.1332,-0.82938 -1.2441,-0.829381 -1.4745,-2.211682 -0.5529,-2.948908 -0.6911,-10.18295 -0.092,-7.234042 0.4147,-11.749558 0.1382,-1.151917 1.7509,-1.244071 0.9215,0 4.4694,0.184307 3.594,0.13823 4.4694,0.230383 0.5069,0.04608 0.7834,0.552921 0.2764,0.506843 0.2764,1.105841 0,0.322536 -0.092,0.598997 -0.046,0.230383 -0.2304,0.41469 -0.1383,0.184307 -0.3686,0.322537 -0.1843,0.09215 -0.4147,0.13823 -1.6588,0.09215 -6.2665,0.13823 -0.2303,3.041062 -0.3686,8.846726 0.6912,0 2.396,0 2.1656,0.04608 2.7185,0 0.9216,0 0.9677,0.737227 0.046,0.460767 -0.3226,0.875458 -0.3686,0.41469 -0.8294,0.460767 -0.3225,0 -1.5205,0 -0.8755,0 -2.8568,0 -0.4146,0 -0.599,0 -0.046,3.133215 -0.046,5.252743 0.092,2.395988 0.2304,2.718525 0.1382,0.322537 1.0597,0.460767 0.6451,0.13823 2.396,0.230384 1.8431,0.09215 2.8107,0.184307 z m 15.304,1.474454 q 0,0.506844 -0.5068,0.875457 -0.4608,0.368614 -1.1059,0.460767 -0.5068,0.04608 -0.9215,-0.09215 -0.3686,-0.13823 -0.599,-0.414691 -0.2304,-0.27646 -0.3225,-0.69115 -0.4147,-2.395988 -1.7049,-9.537877 -1.5205,0 -2.396,0 -0.9215,5.114514 -1.3362,9.722184 -0.1382,1.105841 -1.1519,1.105841 h -0.046 q -0.5529,0 -1.0597,-0.414691 -0.5069,-0.41469 -0.553,-1.013687 -0.2304,-3.271446 0.6912,-11.104484 0.9215,-7.786962 2.1656,-12.717169 0.2304,-1.059764 2.0734,-1.105841 0.6451,0 1.2902,0.184307 0.6451,0.13823 1.1519,0.460767 0.5068,0.322537 0.599,0.737227 1.1058,3.962596 3.7322,23.499116 z m -7.0497,-11.657405 q 0.9215,-0.04608 1.4744,-0.04608 -0.4147,-2.303835 -0.7372,-4.100827 -0.5068,2.442065 -0.8294,4.146903 0.046,0 0.092,0 z m 22.0773,11.933865 q 0.1843,1.013687 -0.6912,1.244071 -0.1843,0.04608 -0.3686,0.04608 -0.4608,0 -0.9676,-0.276461 -0.7372,-0.41469 -1.0598,-1.24407 -0.3686,-1.013688 -0.8754,-4.791977 -0.5069,-3.778289 -0.7372,-7.326195 -0.599,4.146903 -0.6912,5.483127 0,0.368614 -0.2304,0.691151 -0.1843,0.322536 -0.4607,0.506843 -0.2765,0.13823 -0.599,0.230384 -0.8755,0.13823 -1.152,-0.598997 -0.1382,-0.322537 -0.9676,-4.146903 -0.9215,-3.91652 -1.2901,-5.390974 -0.1382,3.225369 0.2304,8.017346 0.4147,4.7459 0.7833,7.280118 0.046,0.460767 -0.3226,0.82938 -0.3225,0.368614 -0.9215,0.506844 -0.599,0.09215 -1.1519,-0.13823 -0.5069,-0.230383 -0.6451,-0.82938 -1.0598,-4.791977 -1.4284,-11.196638 -0.4607,-7.510502 0.553,-11.795635 0.1843,-0.737227 1.2901,-0.921534 0.8294,-0.13823 1.7509,0.184307 0.9215,0.27646 1.2441,0.82938 0.4147,0.737228 1.9813,6.220355 0.046,0.09215 0.092,0.322537 0.046,0.184306 0.092,0.27646 0.046,-0.368614 0.092,-0.460767 1.3823,-6.312508 1.797,-7.372272 0.4147,-1.105841 1.5666,-0.875457 0.6451,0.09215 1.1059,0.645074 0.4607,0.598997 0.4147,1.428377 -0.046,2.856756 0.1382,7.234042 0.2304,4.33121 0.599,8.616342 0.4147,4.239057 0.8294,6.773275 z m 5.5358,-0.55292 q 0,0.09215 0,0.13823 0,0.13823 0,0.230383 -0.046,1.336225 -0.6451,2.442065 -0.6451,1.290148 -1.4744,1.290148 -0.1383,0 -0.2765,-0.13823 -0.092,-0.184307 0,-0.552921 0.3225,-1.24407 -0.3225,-1.981298 -0.599,-0.506843 -0.599,-1.290147 0,-0.691151 0.4607,-1.197994 0.5069,-0.506844 1.198,-0.506844 0.6451,0 1.1059,0.460767 0.5068,0.41469 0.5529,1.105841 z"
         id="path3" /><path
         style="font-family:'Orange Juice';-inkscape-font-specification:'Orange Juice'"
         d="m 827.77804,-1.9121945 q 1.05976,0.1843067 0.92153,1.2901475 -0.0921,0.87545727 -0.32254,3.0871388 -0.23038,1.981298 -0.36861,3.1792922 -0.0921,1.1519174 -0.32254,3.2714456 -0.23038,2.1195284 -0.36861,3.6400594 -0.0922,1.520531 -0.18431,3.363599 -0.0922,1.796991 -0.0922,3.317522 0.0461,1.474454 0.13823,2.626372 0.0922,0.82938 -0.32254,1.382301 -0.36861,0.55292 -0.96761,0.737227 -0.18431,0.04608 -0.41469,0.04608 -0.92153,0 -1.33622,-0.921534 -0.69115,-1.566608 -2.85676,-8.339883 -0.73723,3.455753 -1.24407,7.187965 -0.13823,1.059764 -1.93522,1.197994 -0.36861,0 -0.73723,0 -0.36861,-0.04608 -0.69115,-0.13823 -0.32254,-0.13823 -0.55292,-0.322537 -0.23038,-0.230383 -0.32254,-0.506843 -0.73722,-2.395989 -1.10584,-5.943894 -0.27646,-2.672449 -0.32253,-5.851741 -0.0922,-6.4046612 0.69115,-11.19663779 0.0461,-0.32253691 0.23038,-0.55292041 0.23038,-0.2764602 0.599,-0.3686136 0.36861,-0.13823 0.7833,-0.092153 0.599,0.092153 1.01369,0.460767 0.41469,0.36861362 0.41469,0.8754573 -0.18431,2.3038349 -0.23038,6.1282009 -0.0461,3.8243659 0.1843,8.2938056 0.18431,-1.151918 0.46077,-2.626372 0.27646,-1.4744541 0.50684,-2.6724482 0.23039,-1.2440709 0.41469,-2.1656049 0.23039,-0.9215339 0.32254,-1.1519174 0.23038,-0.6911505 1.01369,-0.5989971 0.50684,0.046077 0.96761,0.460767 0.46077,0.3686136 0.50684,0.921534 0.23039,1.7509145 1.29015,6.5428906 0.13823,-1.336224 0.36861,-3.0410616 0.27646,-1.7509145 0.50685,-3.3635989 0.27646,-1.6126845 0.50684,-3.0871388 0.27646,-1.4744544 0.46077,-2.53421844 0.23038,-1.05976406 0.36861,-1.52053105 0.0921,-0.50684371 0.73723,-0.78330391 0.64507,-0.3225368 1.29015,-0.2303834 z m 13.96783,22.9001195 q 0.599,0.09215 0.92154,0.460766 0.32254,0.368614 0.32254,0.783304 0,0.414691 -0.27646,0.783304 -0.27646,0.322537 -0.87546,0.414691 -1.79699,0.322536 -5.62136,0.322536 -1.88914,0 -3.13321,-0.82938 -1.24408,-0.829381 -1.47446,-2.211682 -0.55292,-2.948908 -0.69115,-10.18295 -0.0922,-7.2340416 0.41469,-11.7495581 0.13823,-1.1519174 1.75092,-1.2440708 0.92153,0 4.46944,0.1843068 3.59398,0.1382301 4.46943,0.2303835 0.50685,0.046077 0.78331,0.5529203 0.27646,0.50684372 0.27646,1.1058408 0,0.32253688 -0.0921,0.59899707 -0.0461,0.2303835 -0.23039,0.41469029 -0.13823,0.18430679 -0.36861,0.32253689 -0.18431,0.0921534 -0.41469,0.13823005 -1.65876,0.092153 -6.26643,0.1382301 -0.23039,3.0410621 -0.36862,8.8467261 0.69115,0 2.39599,0 2.16561,0.04608 2.71853,0 0.92153,0 0.96761,0.737227 0.0461,0.460767 -0.32254,0.875457 -0.36861,0.414691 -0.82938,0.460767 -0.32254,0 -1.52053,0 -0.87546,0 -2.85676,0 -0.41469,0 -0.59899,0 -0.0461,3.133216 -0.0461,5.252744 0.0922,2.395988 0.23038,2.718525 0.13823,0.322537 1.05977,0.460767 0.64507,0.13823 2.39599,0.230384 1.84306,0.09215 2.81067,0.184307 z m 25.03278,1.474454 q 0,0.506844 -0.50685,0.875457 -0.46077,0.368614 -1.10584,0.460767 -0.50684,0.04608 -0.92153,-0.09215 -0.36862,-0.13823 -0.599,-0.414691 -0.23038,-0.27646 -0.32254,-0.69115 -0.41469,-2.395988 -1.70484,-9.537877 -1.52053,0 -2.39598,0 -0.92154,5.114514 -1.33623,9.722184 -0.13823,1.105841 -1.15192,1.105841 h -0.0461 q -0.55292,0 -1.05977,-0.414691 -0.50684,-0.41469 -0.55292,-1.013687 -0.23038,-3.271446 0.69115,-11.104484 0.92154,-7.7869624 2.16561,-12.7171692 0.23038,-1.059764 2.07345,-1.1058407 0.64507,0 1.29015,0.1843068 0.64507,0.1382301 1.15192,0.4607669 0.50684,0.3225369 0.59899,0.7372272 1.10584,3.9625961 3.73222,23.499116 z m -7.04974,-11.657405 q 0.92153,-0.04608 1.47445,-0.04608 -0.41469,-2.3038344 -0.73722,-4.1008257 -0.50685,2.442065 -0.82938,4.1469027 0.0461,0 0.0922,0 z m 21.0636,11.749558 q 0,0.414691 -0.27646,0.783304 -0.27646,0.322537 -0.82938,0.460767 -1.84307,0.322537 -5.66744,0.322537 -1.88914,0 -2.81067,-0.737227 -0.87546,-0.645074 -1.10584,-1.981298 -0.599,-3.225369 -0.96762,-10.413334 -0.41469,-7.786962 0,-11.88778819 0.0922,-0.59899711 0.64508,-0.92153401 0.55292,-0.3225368 1.42838,-0.2764601 0.92153,0.092153 1.5666,0.598997 0.82938,0.59899711 0.78331,1.47445438 -0.32254,3.36359902 -0.32254,11.51917492 0,8.247729 0.32254,8.984956 0.23038,0.506844 3.27144,0.645074 1.79699,0.09215 2.71853,0.230383 0.599,0.04608 0.92153,0.41469 0.32254,0.368614 0.32254,0.783304 z m 12.9541,0 q 0,0.414691 -0.27646,0.783304 -0.27646,0.322537 -0.82938,0.460767 -1.84306,0.322537 -5.66743,0.322537 -1.88914,0 -2.81068,-0.737227 -0.87546,-0.645074 -1.10584,-1.981298 -0.599,-3.225369 -0.96761,-10.413334 -0.41469,-7.786962 0,-11.88778819 0.0922,-0.59899711 0.64507,-0.92153401 0.55292,-0.3225368 1.42838,-0.2764601 0.92154,0.092153 1.56661,0.598997 0.82938,0.59899711 0.7833,1.47445438 -0.32253,3.36359902 -0.32253,11.51917492 0,8.247729 0.32253,8.984956 0.23039,0.506844 3.27145,0.645074 1.79699,0.09215 2.71852,0.230383 0.599,0.04608 0.92154,0.41469 0.32253,0.368614 0.32253,0.783304 z M 913.15802,8.6393694 q 2.02738,1.8430676 2.81068,3.0410616 1.42838,2.073452 1.42838,4.515517 0,2.856755 -1.65876,5.16059 -1.79699,2.488142 -4.28513,2.488142 -3.13322,0 -4.69983,-2.994986 -1.05976,-1.981298 -1.05976,-3.962596 0,-0.55292 0.27646,-0.96761 0.27646,-0.414691 0.69115,-0.460767 0.46077,-0.04608 0.82938,0.322537 0.41469,0.368613 0.599,1.197994 0.96761,3.916519 2.81068,3.916519 0.73722,0 1.3823,-1.013687 0.73722,-1.197994 0.73722,-3.133216 0,-1.290147 -0.55292,-2.442065 -0.50684,-1.151917 -1.05976,-1.750914 -0.50684,-0.645074 -1.61268,-1.704838 -0.87546,-0.829381 -1.33623,-1.3362244 -0.46077,-0.5068437 -1.05976,-1.3362242 -0.599,-0.8754573 -0.87546,-1.7969913 -0.27646,-0.9676106 -0.27646,-2.0734514 0,-2.7185252 1.52053,-4.60766981 1.70484,-2.11952809 4.51552,-2.11952809 2.67245,0 4.10082,2.71852517 1.01369,1.84306793 1.01369,3.68613583 0,0.921534 -0.46077,1.382301 -0.41469,0.460767 -1.05976,0.460767 -0.50684,0 -1.01369,-0.2303835 -0.50684,-0.2303835 -0.87545,-0.5989971 -0.32254,-0.4146903 -0.32254,-0.8754573 0,-1.1979941 -0.27646,-2.442065 -0.32254,-1.38230093 -0.73723,-1.38230093 -0.69115,0 -1.47445,1.24407083 -0.73723,1.2440709 -0.73723,3.0871388 0,0.7372272 0.41469,1.4744544 0.46077,0.7372271 0.92153,1.1979941 0.46077,0.460767 1.3823,1.3362243 z m 18.43726,7.8791156 q -0.18431,2.948908 -1.79699,5.114513 -1.61268,2.165605 -3.59398,2.165605 -1.3823,0 -2.5803,-0.921534 -1.19799,-0.967611 -2.11953,-2.672448 -0.92153,-1.750915 -1.42837,-4.100827 -0.50685,-2.488141 -0.50685,-5.390973 0,-5.8978176 1.93522,-9.5378768 1.93523,-3.6400591 4.88413,-3.6400591 1.38231,0 2.39599,0.6911504 1.05977,0.6911505 1.56661,1.70483788 0.55292,1.01368737 0.82938,1.93522132 0.27646,0.921534 0.27646,1.6126845 0,1.7509145 -1.19799,1.8430679 -0.55292,0.046077 -1.05977,-0.3686136 -0.50684,-0.4146903 -0.59899,-0.921534 -0.55292,-3.77828923 -1.84307,-3.77828923 -0.23039,0 -0.50685,0.32253689 -0.23038,0.32253689 -0.55292,1.05976404 -0.32253,0.7372272 -0.59899,1.7969913 -0.92154,3.4096756 -0.92154,7.4183485 0,4.054749 0.73723,7.234042 0.27646,1.10584 0.55292,1.843067 0.27646,0.691151 0.46077,0.921534 0.23038,0.230384 0.36861,0.230384 0.78331,0 1.42838,-0.737227 0.64507,-0.737227 1.01369,-1.750915 0.36861,-1.059764 0.50684,-2.303835 0.0922,-0.69115 0.46077,-1.013687 0.41469,-0.322537 0.82938,-0.27646 0.46076,0.04608 0.7833,0.460767 0.32254,0.41469 0.27646,1.059764 z m 13.23058,4.054749 q 0.55292,0.322537 0.32254,0.829381 -0.23039,0.598997 -1.33623,1.151917 -1.10584,0.506844 -1.70484,0.414691 -0.92153,-0.184307 -3.31752,-2.211682 0.0922,1.013687 0.32254,3.455752 l 0.0461,0.276461 q 0.0461,0.460767 -0.32254,0.82938 -0.32254,0.368614 -0.87546,0.460767 -0.1843,0.04608 -0.36861,0.04608 -1.47446,0 -1.9813,-1.704838 -0.82938,-2.856755 -1.47445,-12.256402 -0.64508,-9.4917996 -0.23039,-14.3759296 0,-0.1843068 0.13823,-0.2303835 0.87546,-0.5529204 2.44207,-0.3686136 1.65876,0.1843068 3.27144,1.1058408 2.34991,1.29014751 3.77829,3.6400591 1.65876,2.7646019 1.65876,6.5428912 0,3.3635986 -1.70483,6.6350446 -0.96762,1.843068 -2.16561,3.087139 0.46077,0.460767 1.61269,1.336224 1.15191,0.875457 1.88914,1.336224 z m -6.31251,-4.930206 q 2.07345,-2.626372 2.07345,-7.4183489 0,-4.4233631 -2.02737,-6.1742776 -0.36861,7.7408853 -0.0461,13.5926265 z m 19.72744,5.344897 q 0.59899,0.09215 0.92153,0.460766 0.32254,0.368614 0.32254,0.783304 0,0.414691 -0.27646,0.783304 -0.27646,0.322537 -0.87546,0.414691 -1.79699,0.322536 -5.62136,0.322536 -1.88914,0 -3.13321,-0.82938 -1.24407,-0.829381 -1.47446,-2.211682 -0.55292,-2.948908 -0.69115,-10.18295 -0.0922,-7.2340416 0.41469,-11.7495581 0.13823,-1.1519174 1.75092,-1.2440708 0.92153,0 4.46944,0.1843068 3.59398,0.1382301 4.46944,0.2303835 0.50684,0.046077 0.7833,0.5529203 0.27646,0.50684372 0.27646,1.1058408 0,0.32253688 -0.0921,0.59899707 -0.0461,0.2303835 -0.23039,0.41469029 -0.13823,0.18430679 -0.36861,0.32253689 -0.18431,0.0921534 -0.41469,0.13823005 -1.65876,0.092153 -6.26643,0.1382301 -0.23039,3.0410621 -0.36862,8.8467261 0.69116,0 2.39599,0 2.16561,0.04608 2.71853,0 0.92153,0 0.96761,0.737227 0.0461,0.460767 -0.32254,0.875457 -0.36861,0.414691 -0.82938,0.460767 -0.32254,0 -1.52053,0 -0.87546,0 -2.85675,0 -0.4147,0 -0.599,0 -0.0461,3.133216 -0.0461,5.252744 0.0922,2.395988 0.23038,2.718525 0.13823,0.322537 1.05977,0.460767 0.64507,0.13823 2.39599,0.230384 1.84307,0.09215 2.81068,0.184307 z m 15.30402,1.474454 q 0,0.506844 -0.50684,0.875457 -0.46077,0.368614 -1.10584,0.460767 -0.50685,0.04608 -0.92154,-0.09215 -0.36861,-0.13823 -0.59899,-0.414691 -0.23039,-0.27646 -0.32254,-0.69115 -0.41469,-2.395988 -1.70484,-9.537877 -1.52053,0 -2.39599,0 -0.92153,5.114514 -1.33622,9.722184 -0.13823,1.105841 -1.15192,1.105841 h -0.0461 q -0.55292,0 -1.05976,-0.414691 -0.50684,-0.41469 -0.55292,-1.013687 -0.23038,-3.271446 0.69115,-11.104484 0.92153,-7.7869624 2.16561,-12.7171692 0.23038,-1.059764 2.07345,-1.1058407 0.64507,0 1.29014,0.1843068 0.64508,0.1382301 1.15192,0.4607669 0.50685,0.3225369 0.599,0.7372272 1.10584,3.9625961 3.73221,23.499116 z m -7.04973,-11.657405 q 0.92153,-0.04608 1.47445,-0.04608 -0.41469,-2.3038344 -0.73723,-4.1008257 -0.50684,2.442065 -0.82938,4.1469027 0.0461,0 0.0922,0 z m 22.0773,11.933865 q 0.18431,1.013687 -0.69115,1.244071 -0.18431,0.04608 -0.36861,0.04608 -0.46077,0 -0.96762,-0.276461 -0.73722,-0.41469 -1.05976,-1.24407 -0.36861,-1.013688 -0.87546,-4.791977 -0.50684,-3.778289 -0.73722,-7.326195 -0.599,4.146903 -0.69115,5.483127 0,0.368614 -0.23039,0.69115 -0.1843,0.322537 -0.46076,0.506844 -0.27647,0.13823 -0.599,0.230384 -0.87546,0.13823 -1.15192,-0.598997 -0.13823,-0.322537 -0.96761,-4.146903 -0.92153,-3.9165196 -1.29015,-5.390974 -0.13823,3.225369 0.23039,8.017346 0.41469,4.745899 0.7833,7.280118 0.0461,0.460767 -0.32254,0.82938 -0.32253,0.368614 -0.92153,0.506844 -0.599,0.09215 -1.15192,-0.13823 -0.50684,-0.230383 -0.64507,-0.829381 -1.05977,-4.791976 -1.42838,-11.196637 -0.46077,-7.5105021 0.55292,-11.79563501 0.18431,-0.73722718 1.29015,-0.92153399 0.82938,-0.1382301 1.75091,0.18430681 0.92154,0.27646019 1.24407,0.82938057 0.41469,0.73722718 1.9813,6.22035432 0.0461,0.092153 0.0921,0.3225368 0.0461,0.1843068 0.0922,0.2764602 0.0461,-0.3686136 0.0921,-0.4607669 1.3823,-6.31250772 1.79699,-7.3722718 0.41469,-1.1058407 1.56661,-0.8754572 0.64507,0.092153 1.10584,0.6450737 0.46077,0.59899711 0.41469,1.42837768 -0.0461,2.85675532 0.13823,7.23404162 0.23039,4.3312092 0.599,8.6163422 0.41469,4.239057 0.82938,6.773275 z m 23.42012,-24.3745734 q 0.7833,0.2764602 0.6912,1.52053109 -0.1383,1.10584076 -0.9216,1.19799411 -1.5205,0.2303835 -5.437,0.1843068 -1.0598,0 -1.4745,0 -0.2764,2.8106786 -0.3225,8.8006494 0.599,0 0.8294,0 2.1656,0.04608 2.6724,0 0.9676,0 1.0137,0.737227 0,0.27646 -0.1843,0.598997 -0.1382,0.27646 -0.4147,0.506844 -0.2764,0.184307 -0.599,0.230383 -0.2764,0 -1.4744,0 -0.7373,0 -1.8431,0 0,6.358585 0.2765,10.182951 0.046,0.55292 -0.2304,0.921534 -0.2765,0.368613 -0.7833,0.460767 -0.1383,0.04608 -0.2765,0.04608 -0.599,0 -1.1058,-0.368613 -0.5069,-0.368614 -0.6912,-1.059764 -0.9676,-3.640059 -1.1519,-12.8553991 -0.1843,-7.7408853 0.1843,-10.689794 0.046,-0.3686136 0.2765,-0.6450737 0.2303,-0.2764602 0.599,-0.4146903 0.3686,-0.1843068 0.8754,-0.1843068 1.5205,0 4.9302,0.2303835 3.4097,0.1843068 4.5616,0.598997 z m 5.9044,0.4146903 q 1.198,0 2.0734,1.10584079 0.9216,1.10584076 1.3823,2.62637181 0.4608,1.520531 0.7373,3.5479058 0.2764,2.0273747 0.3225,3.3635989 0.046,1.3362238 0.046,2.6263718 0,4.515516 -1.0598,8.017346 -0.599,1.981298 -1.4744,3.087138 -1.0137,1.290148 -2.35,1.290148 -1.7048,0 -2.9489,-1.843068 -1.198,-1.889145 -1.7509,-4.60767 -0.5068,-2.764602 -0.5068,-5.989971 0,-4.3312093 1.198,-8.201652 0.6911,-2.2577582 1.6587,-3.50182903 1.198,-1.52053107 2.6725,-1.52053107 z m 1.2901,19.1679061 q 0.5069,-2.534218 0.5069,-5.759587 0,-3.8243658 -0.4147,-6.4507376 -0.1843,-1.382301 -0.4608,-2.0734515 -0.2304,-0.5529203 -0.4147,-0.6450737 -0.4147,0.460767 -0.8754,3.1792922 -0.4608,2.9949853 -0.4608,6.1742776 0,2.580295 0.5068,5.206667 0.3687,2.257758 0.7833,2.718525 0.4147,-0.460767 0.8294,-2.349912 z m 16.2716,2.626372 q 0.5529,0.322537 0.3226,0.829381 -0.2304,0.598997 -1.3363,1.151917 -1.1058,0.506844 -1.7048,0.414691 -0.9215,-0.184307 -3.3175,-2.211682 0.092,1.013687 0.3225,3.455752 l 0.046,0.276461 q 0.046,0.460767 -0.3225,0.82938 -0.3226,0.368614 -0.8755,0.460767 -0.1843,0.04608 -0.3686,0.04608 -1.4745,0 -1.9813,-1.704838 -0.8294,-2.856755 -1.4745,-12.256402 -0.645,-9.4917996 -0.2304,-14.3759296 0,-0.1843068 0.1383,-0.2303835 0.8754,-0.5529204 2.442,-0.3686136 1.6588,0.1843068 3.2715,1.1058408 2.3499,1.29014751 3.7783,3.6400591 1.6587,2.7646019 1.6587,6.5428912 0,3.3635986 -1.7048,6.6350446 -0.9676,1.843068 -2.1656,3.087139 0.4608,0.460767 1.6127,1.336224 1.1519,0.875457 1.8891,1.336224 z m -6.3125,-4.930206 q 2.0735,-2.626372 2.0735,-7.4183489 0,-4.4233631 -2.0274,-6.1742776 -0.3686,7.7408853 -0.046,13.5926265 z m 9.3602,5.483127 q 0.5068,-0.506844 1.198,-0.506844 0.6911,0 1.1519,0.506844 0.5069,0.460767 0.5069,1.151917 0,0.691151 -0.5069,1.197994 -0.4608,0.460767 -1.1519,0.460767 -0.6912,0 -1.198,-0.460767 -0.4608,-0.506843 -0.4608,-1.197994 0,-0.69115 0.4608,-1.151917 z m 5.5358,0 q 0.5068,-0.506844 1.198,-0.506844 0.6911,0 1.1519,0.506844 0.5068,0.460767 0.5068,1.151917 0,0.691151 -0.5068,1.197994 -0.4608,0.460767 -1.1519,0.460767 -0.6912,0 -1.198,-0.460767 -0.4608,-0.506843 -0.4608,-1.197994 0,-0.69115 0.4608,-1.151917 z m 5.5358,0 q 0.5068,-0.506844 1.198,-0.506844 0.6911,0 1.1519,0.506844 0.5068,0.460767 0.5068,1.151917 0,0.691151 -0.5068,1.197994 -0.4608,0.460767 -1.1519,0.460767 -0.6912,0 -1.198,-0.460767 -0.4608,-0.506843 -0.4608,-1.197994 0,-0.69115 0.4608,-1.151917 z"
         id="path30" /></g><path
       d="m 725.35346,36.563875 q 3.06721,0.547715 2.73858,3.505376 -0.32863,2.629032 -0.98589,9.201612 -4.92943,43.050398 -3.61492,57.619617 0.21909,2.3004 -0.87634,3.94355 -1.09543,1.5336 -2.84812,1.97177 -0.54771,0.21909 -1.09543,0.21909 -2.62903,0 -3.834,-2.62903 -2.19086,-4.8199 -8.6539,-25.304437 -2.19086,10.187499 -3.83401,22.018147 -0.21908,1.42406 -1.86223,2.3004 -1.5336,0.7668 -3.61492,0.98589 -2.40994,0.21908 -4.38172,-0.43818 -1.86223,-0.7668 -2.40994,-2.3004 -3.83401,-12.597444 -4.16264,-34.834673 -0.21908,-18.950938 1.97178,-33.191528 0.21908,-1.643145 1.75269,-2.300403 1.20497,-0.657258 2.84811,-0.438172 1.75269,0.109543 2.95766,1.204973 1.20498,0.985887 1.09543,2.519489 -0.54771,7.120295 -0.65725,18.950939 -0.10955,11.830643 0.7668,25.304432 0.7668,-5.148521 2.19086,-12.487902 2.19086,-12.268815 3.0672,-14.569218 0.54772,-1.862231 2.73858,-1.643145 1.5336,0.109543 2.73857,1.204973 1.31452,1.09543 1.5336,2.738575 0.65726,5.805778 4.05309,20.594083 0.87635,-9.420698 3.17675,-23.113572 2.40995,-13.802418 3.39583,-18.184138 0.43818,-1.424059 2.19086,-2.300403 1.86224,-0.876344 3.61492,-0.547715 z m 40.43705,9.092069 q -4.92943,0.328629 -18.62231,0.438172 -0.7668,8.982526 -1.20497,26.509405 2.08131,0 7.33938,0.109543 6.46304,0 7.99664,0 2.62903,-0.109543 2.73857,1.971774 0.10955,1.204973 -0.87634,2.409946 -0.98589,1.204973 -2.40995,1.314516 -0.87634,0.109543 -4.38172,0.109543 -2.62903,0 -8.54435,-0.109543 -0.10954,0 -0.87635,0 -0.7668,0 -1.09542,0 -0.43818,21.9086 0.54771,23.88037 0.43817,1.09543 3.28629,1.53361 1.86223,0.32863 7.12029,0.65725 5.47715,0.21909 8.32527,0.54772 1.64315,0.21909 2.51949,1.31452 0.98589,0.98588 0.98589,2.19086 0.10954,1.09543 -0.7668,2.08131 -0.7668,0.98589 -2.40995,1.31452 -5.36761,0.98589 -16.76008,0.98589 -5.47715,0 -9.20161,-2.51949 -3.50537,-2.40995 -4.27218,-6.3535 -1.64314,-8.872981 -1.97177,-30.233866 -0.21909,-21.360884 1.31452,-34.72513 0.21908,-1.862231 1.75268,-2.738575 1.20498,-0.657258 3.28629,-0.766801 2.62904,-0.109543 13.14516,0.438172 10.62567,0.438172 13.14516,0.766801 1.42406,0.109543 2.19086,1.533602 0.87635,1.424059 0.87635,3.176747 0,1.752688 -0.87635,2.957661 -0.87634,1.09543 -2.3004,1.204973 z m 26.0869,-2.300403 q -2.08132,0 -4.16264,3.395833 -2.40994,4.053091 -2.40994,9.639784 0,1.643145 0.54771,3.176747 0.54772,1.533602 1.86223,3.176746 1.42406,1.643145 2.40995,2.738575 1.09543,0.985887 3.17675,2.957661 6.02486,5.367607 8.32526,8.872983 4.16264,6.134408 4.16264,13.364246 0,8.434811 -4.92944,15.226474 -5.14852,7.22984 -12.4879,7.22984 -4.92943,0 -8.65389,-2.62903 -3.06721,-2.3004 -5.14853,-6.13441 -3.0672,-5.915321 -3.0672,-11.7211 0,-1.533602 0.7668,-2.629032 0.7668,-1.204973 1.97178,-1.314516 1.20497,-0.219086 2.3004,0.876344 1.20497,0.985887 1.75269,3.395833 2.84811,11.721101 8.54435,11.721101 2.19086,0 4.16263,-2.95766 2.30041,-3.61492 2.30041,-9.420699 0,-2.957661 -0.7668,-5.367607 -0.65726,-2.519489 -2.40995,-4.819892 -1.64314,-2.300403 -2.84812,-3.614919 -1.20497,-1.424059 -3.72446,-3.834005 -2.51949,-2.519489 -3.834,-3.943548 -1.31452,-1.424059 -3.17675,-3.943548 -1.75269,-2.519489 -2.62903,-5.258064 -0.7668,-2.848117 -0.7668,-6.134407 0,-3.724462 1.09543,-7.120295 1.20497,-3.614919 3.39583,-6.353494 4.92943,-6.243951 13.2547,-6.243951 7.77755,0 11.94019,7.887096 2.95766,5.47715 2.95766,10.844757 0,2.629032 -1.31452,4.053091 -1.09543,1.314516 -3.0672,1.314516 -2.19086,0 -4.16264,-1.424059 -2.08131,-1.643145 -2.08131,-3.395833 0,-3.614919 -0.87635,-7.339381 -0.98588,-4.272177 -2.40994,-4.272177 z m 58.18294,-7.229838 q 1.64315,0.109543 1.75269,2.409946 0,1.533602 -0.65726,3.28629 -0.65726,1.752688 -1.75269,1.862231 -3.28629,0.438172 -9.96841,0.219086 -2.08132,0 -2.95766,0 -2.62903,28.15255 -0.54771,63.863564 0.10954,1.75269 -1.09543,2.84812 -0.98589,0.98589 -2.62904,1.20498 -0.32863,0.10954 -0.65725,0.10954 -1.53361,0 -2.73858,-0.7668 -1.86223,-1.09543 -2.19086,-3.17675 -1.64314,-8.544354 -2.62903,-29.57661 -0.87635,-21.141798 -0.10954,-34.506044 -0.65726,0 -2.62904,0 -7.66801,0.109543 -9.63978,0 -1.42406,-0.109543 -2.40995,-1.204973 -0.87634,-1.204973 -0.87634,-2.519489 0,-1.314516 0.65726,-2.19086 0.7668,-0.876344 2.08131,-0.985887 10.62568,-1.314516 19.38912,-1.314516 11.39247,0 19.60819,0.438172 z m 62.90887,0.547715 q 1.5336,1.204973 1.75269,2.957661 0.65726,9.749327 -2.08132,32.862899 -2.73857,23.00403 -6.35349,37.682792 -0.7668,3.17675 -6.13441,3.17675 -0.21908,0 -0.21908,0 -3.06721,0 -5.69624,-1.09543 -2.62903,-1.09543 -3.17675,-2.95766 -3.17674,-11.611562 -10.9543,-69.559808 0,0 0,-0.109543 0,-0.547715 0.21909,-1.09543 0.32863,-0.657258 0.7668,-1.09543 0.43817,-0.438172 0.98589,-0.766801 0.65725,-0.438172 1.31451,-0.547715 0.7668,-0.219086 1.42406,-0.328629 2.19086,-0.219086 3.61492,0.766801 1.42406,0.876344 1.75269,2.629032 2.51949,14.459676 8.54435,47.541661 5.80578,-28.043007 7.77756,-48.089376 0.10954,-1.533602 0.98588,-2.300403 0.98589,-0.876344 2.40995,-0.876344 1.64314,0 3.0672,1.204973 z m 39.77974,72.407922 q 0,0.10954 0,0.10954 0,0.98589 -0.7668,1.86223 -0.65725,0.87635 -1.75268,1.31452 -1.09543,0.54772 -2.30041,0.65726 -2.08131,0.21908 -3.61492,-0.7668 -1.42406,-0.87635 -1.64314,-2.62903 -1.20497,-7.01076 -5.03898,-28.262099 -4.60081,0 -7.22984,0 -2.73857,15.226477 -4.05309,28.809809 -0.21908,1.5336 -1.09543,2.3004 -0.87634,0.87635 -2.3004,0.87635 -1.75269,0 -3.06721,-1.09543 -1.64314,-1.31452 -1.75268,-3.06721 -0.65726,-9.749324 2.08131,-32.862897 2.73858,-23.004029 6.3535,-37.682791 0.7668,-3.067204 6.13441,-3.176747 3.0672,-0.109543 5.69623,0.985887 2.73858,1.09543 3.28629,3.067204 3.28629,11.611558 11.06384,69.559804 z M 931.82625,74.684838 q 2.84812,0 4.60081,0 -1.31452,-7.010752 -2.30041,-12.597445 -1.5336,7.448924 -2.51948,12.597445 0,0 0.10954,0 z m 57.85441,-34.067872 q -0.32863,10.625671 -0.32863,32.643813 0.10955,22.018143 0.43818,35.491931 0.10954,3.17675 -2.30041,4.05309 -0.65725,0.21909 -1.5336,0.21909 -1.75269,0 -3.72446,-0.87635 -1.97177,-0.98588 -2.73858,-1.97177 -1.09543,-1.64314 -9.31115,-28.48118 -1.42406,-5.038978 -1.97177,-6.57258 -0.10955,7.558467 0.32862,18.512767 0.54772,10.954303 0.87635,14.569223 0.10954,1.20497 -0.65726,2.08131 -0.7668,0.87635 -2.19086,1.09543 -1.97177,0.32863 -3.94355,-0.43817 -1.97177,-0.87634 -2.3004,-2.40994 -1.42406,-5.80578 -2.84812,-31.767475 -1.64314,-28.15255 -0.32863,-38.340049 0.21909,-2.519489 4.27218,-2.848118 2.73857,-0.219086 5.47715,0.766801 2.73857,0.876344 3.17675,2.738575 0.87634,3.176747 3.61492,14.131047 4.38172,17.526879 6.02486,22.784943 0.32863,-27.385749 1.75269,-37.682791 0.10954,-1.314516 1.31451,-2.081317 1.20498,-0.766801 2.84812,-0.547715 1.75269,0.109543 2.95766,1.424059 1.20498,1.314516 1.09543,3.505376 z m 48.88754,2.738575 q -2.0813,0 -4.1626,3.395833 -2.41,4.053091 -2.41,9.639784 0,1.643145 0.5477,3.176747 0.5477,1.533602 1.8623,3.176746 1.424,1.643145 2.4099,2.738575 1.0954,0.985887 3.1767,2.957661 6.0249,5.367607 8.3253,8.872983 4.1626,6.134408 4.1626,13.364246 0,8.434811 -4.9294,15.226474 -5.1485,7.22984 -12.4879,7.22984 -4.9294,0 -8.6539,-2.62903 -3.0672,-2.3004 -5.1485,-6.13441 -3.0672,-5.915321 -3.0672,-11.7211 0,-1.533602 0.7668,-2.629032 0.7668,-1.204973 1.9718,-1.314516 1.2049,-0.219086 2.3004,0.876344 1.2049,0.985887 1.7527,3.395833 2.8481,11.721101 8.5443,11.721101 2.1909,0 4.1626,-2.95766 2.3004,-3.61492 2.3004,-9.420699 0,-2.957661 -0.7668,-5.367607 -0.6572,-2.519489 -2.4099,-4.819892 -1.6431,-2.300403 -2.8481,-3.614919 -1.205,-1.424059 -3.7245,-3.834005 -2.5195,-2.519489 -3.834,-3.943548 -1.3145,-1.424059 -3.1767,-3.943548 -1.7527,-2.519489 -2.6291,-5.258064 -0.7668,-2.848117 -0.7668,-6.134407 0,-3.724462 1.0955,-7.120295 1.2049,-3.614919 3.3958,-6.353494 4.9294,-6.243951 13.2547,-6.243951 7.7776,0 11.9402,7.887096 2.9576,5.47715 2.9576,10.844757 0,2.629032 -1.3145,4.053091 -1.0954,1.314516 -3.0672,1.314516 -2.1908,0 -4.1626,-1.424059 -2.0813,-1.643145 -2.0813,-3.395833 0,-3.614919 -0.8764,-7.339381 -0.9859,-4.272177 -2.4099,-4.272177 z m 43.5041,-3.834005 q 2.8481,3.395833 4.6008,9.639784 3.0672,10.187499 3.0672,25.304432 0,15.33602 -4.0531,26.399868 -1.9717,5.58669 -4.7103,8.76344 -3.0672,3.39583 -6.5726,3.39583 -4.1626,0 -7.668,-3.39583 -3.0672,-2.95767 -5.3676,-8.54436 -2.0813,-5.14852 -3.2863,-11.940186 -1.0954,-6.57258 -1.0954,-13.692875 0,-14.678761 4.4912,-26.509405 2.3004,-6.134408 5.3677,-9.530241 3.5053,-3.834005 7.5584,-3.834005 4.4913,0 7.668,3.943548 z m -6.6821,61.124994 q 0.4382,0 0.9859,-0.766802 0.5477,-0.766801 1.205,-2.629032 0.7668,-1.971774 1.424,-4.710349 2.0813,-8.653897 2.0813,-19.389111 0,-12.159272 -1.5336,-19.38911 -0.4381,-2.300403 -1.0954,-3.724462 -0.5477,-1.424059 -0.8763,-1.862231 -0.3287,-0.438172 -0.6573,-0.438172 -0.8763,0 -2.0813,2.300403 -1.205,2.19086 -2.3004,6.353494 -2.3004,9.092068 -2.3004,20.155911 0,10.077956 2.0813,17.636423 1.6431,5.805779 3.0672,6.463038 z m 53.2535,-62.658596 q 1.0955,0.328629 1.5336,1.643145 0.5478,1.204973 0.3287,2.629032 -0.2191,3.176747 -2.5195,3.505376 -4.3817,0.547715 -15.9933,0.438172 -3.2863,0 -4.6008,0 -0.7668,8.325268 -0.9859,26.509405 0.9859,0 2.629,0 6.3535,0 7.8871,0 2.7386,-0.109543 2.8482,1.971774 0,0.876344 -0.4382,1.752688 -0.4382,0.766801 -1.205,1.314516 -0.7668,0.547715 -1.6431,0.657258 -0.8764,0.109543 -4.4913,0.109543 -1.9718,0 -5.5867,-0.109543 0,19.060482 0.8764,30.45295 0.1095,0.76681 -0.1096,1.42406 -0.2191,0.65726 -0.6572,1.20498 -0.3287,0.43817 -0.8764,0.7668 -0.5477,0.32863 -1.3145,0.43817 -0.3286,0.10954 -0.7668,0.10954 -1.4241,0 -2.629,-0.7668 -1.8623,-1.09543 -2.41,-3.17675 -2.9576,-10.954296 -3.5054,-38.12096 -0.4381,-23.004029 0.5478,-31.657926 0.1095,-1.643145 1.5336,-2.519489 1.424,-0.985887 3.5053,-0.985887 1.9718,0 7.0108,0.219086 5.039,0.219086 11.8306,0.766801 6.9012,0.547715 9.2016,1.424059 z m 48.8719,-1.862231 q 1.6431,0.109543 1.7527,2.409946 0,1.533602 -0.6573,3.28629 -0.6572,1.752688 -1.7527,1.862231 -3.2863,0.438172 -9.9684,0.219086 -2.0813,0 -2.9576,0 -2.6291,28.15255 -0.5478,63.863564 0.1096,1.75269 -1.0954,2.84812 -0.9859,0.98589 -2.629,1.20498 -0.3286,0.10954 -0.6573,0.10954 -1.5336,0 -2.7386,-0.7668 -1.8622,-1.09543 -2.1908,-3.17675 -1.6432,-8.544354 -2.629,-29.57661 -0.8764,-21.141798 -0.1096,-34.506044 -0.6572,0 -2.629,0 -7.668,0.109543 -9.6398,0 -1.4241,-0.109543 -2.4099,-1.204973 -0.8764,-1.204973 -0.8764,-2.519489 0,-1.314516 0.6573,-2.19086 0.7668,-0.876344 2.0813,-0.985887 10.6257,-1.314516 19.3891,-1.314516 11.3925,0 19.6082,0.438172 z"
       id="text4"
       style="font-size:109.543px;line-height:0.95;font-family:'Orange Juice';-inkscape-font-specification:'Orange Juice';text-align:center;letter-spacing:0.234735px;text-anchor:middle;fill:#f9f9f9;stroke-width:4.43595;stroke-linecap:round;stroke-linejoin:round"
       aria-label="WEST VAN SOFT" /></g></svg>
