<?xml version="1.0" encoding="UTF-8" standalone="no"?>
<!-- Created with Inkscape (http://www.inkscape.org/) -->

<svg
   version="1.1"
   id="svg1"
   width="227.03479"
   height="216.87219"
   viewBox="0 0 227.03479 216.87219"
   sodipodi:docname="Box-poker-108-cards-CLIENT.svg"
   xml:space="preserve"
   inkscape:version="1.3.2 (091e20e, 2023-11-25, custom)"
   xmlns:inkscape="http://www.inkscape.org/namespaces/inkscape"
   xmlns:sodipodi="http://sodipodi.sourceforge.net/DTD/sodipodi-0.dtd"
   xmlns="http://www.w3.org/2000/svg"
   xmlns:svg="http://www.w3.org/2000/svg"><defs
     id="defs1"><clipPath
       id="clipPath5"
       clipPathUnits="userSpaceOnUse"><path
         d="m 190.51172,144.32031 c -4.83697,0.28625 -9.91994,1.54299 -13.50412,4.99621 -2.36008,2.25848 -3.98256,5.20181 -5.05643,8.25965 -0.50794,2.68879 0.30268,5.41678 1.15797,7.94918 0.28507,0.93559 0.80422,1.78081 1.13109,2.69145 0.24585,0.90428 -0.52214,1.90523 0.0117,2.73047 1.20578,0.14314 2.1794,-1.2515 3.4239,-0.76942 1.31944,0.32975 1.75498,1.74917 2.52532,2.68738 0.81143,0.33533 1.44568,-0.53067 2.23828,-0.61914 1.4112,-0.16031 2.55801,1.0853 3.11328,2.26172 0.65755,1.5662 0.95852,3.27175 1.12636,4.95382 0.15201,2.64867 -0.62472,5.20842 -0.63221,7.79423 0.19106,0.51417 1.02958,0.44756 1.42773,0.21094 0.49039,-0.87464 0.11988,-1.9464 0.19479,-2.90618 -0.006,-2.56434 -0.40026,-5.43479 1.19389,-7.65046 1.11304,-1.39383 3.07013,-0.85872 4.56054,-1.38672 1.41719,-0.61738 1.64037,-2.52755 3.09765,-3.1211 1.39146,-0.61959 2.96354,-0.658 4.46094,-0.6914 1.0998,0.0487 2.23309,0.72924 3.3047,0.25195 0.68663,-0.48245 -0.0399,-1.30825 -0.096,-1.94482 -0.30921,-1.46833 0.93047,-2.61637 1.53615,-3.82613 1.46882,-3.05583 1.57397,-6.6232 0.95014,-9.91063 -0.83628,-3.54756 -3.33987,-6.47326 -6.1476,-8.68105 -2.81017,-2.16821 -6.35024,-3.7066 -10.01806,-3.27995 z"
         style="opacity:1;fill:#feebb3;fill-opacity:1;stroke:#000000;stroke-width:0;stroke-dasharray:none;stroke-opacity:1"
         id="path5-4" /></clipPath><clipPath
       id="clipPath99"
       clipPathUnits="userSpaceOnUse"><g
         style="stroke:#000000;stroke-opacity:1"
         transform="translate(0.79034121,-0.46251593)"
         id="g117"><g
           style="fill:#e381f6;fill-opacity:1;stroke:#000000;stroke-opacity:1"
           transform="matrix(0.81895245,0,0,0.81895245,-396.71712,-299.79457)"
           id="g100"><path
             sodipodi:nodetypes="ssscsssscccccssccccccsss"
             d="m 616.39018,481.29184 c 0.3561,0.0938 5.09909,6.70355 2.68455,12.63726 -1.05606,2.59525 -2.61366,4.83504 -4.74321,6.0215 -1.1011,0.61347 -1.87323,0.18602 -1.87323,0.18602 0,0 0.095,0.72224 -1.12267,1.36175 -3.59196,1.88655 -8.13659,0.74404 -11.3474,-2.18782 -5.11191,-4.66779 -3.76176,-12.25158 1.59493,-11.20104 0.51681,0.10135 0.7892,0.36984 1.30574,0.88954 1.70432,1.71475 2.34101,3.87754 2.16276,4.71323 -0.26903,0.0865 0,0 0,0 l 0.539,-0.13335 c -0.40274,-2.02599 -0.61355,-3.20637 -2.62861,-5.16314 -0.10209,-0.099 -0.14999,-0.19948 -0.11921,-0.29698 0.69914,-3.82175 2.80977,-5.64451 6.91362,-3.52564 0.16081,0.0831 0.26293,0.15481 0.39439,0.23222 1.86303,1.09694 2.93506,4.45858 2.73354,5.4034 -0.26904,0.0865 0,0 0,0 l 0.53899,-0.13334 c -0.45529,-2.29038 -0.73174,-4.19144 -3.37055,-5.95655 -0.069,-0.049 -0.12982,-0.0712 -0.13003,-0.19582 0.23718,-4.19244 2.49913,-7.52096 7.9969,-6.27541 0,0 -1.84609,2.20778 -1.5297,3.62417 0,0 0,0 0,0 z"
             style="fill:#e381f6;fill-opacity:1;stroke:#000000;stroke-width:0.288441;stroke-linecap:round;stroke-linejoin:round;stroke-dasharray:none;stroke-opacity:1"
             id="path99" /></g><g
           style="stroke:#000000;stroke-opacity:1"
           transform="matrix(0.19104804,-0.07488188,0.07488188,0.19104804,70.298579,88.305227)"
           id="g103"><path
             sodipodi:nodetypes="ccccccccc"
             id="path100"
             d="m 118.33259,172.99119 c 4.97893,-5.23157 38.42279,-0.75214 42.29427,2.46357 2.44394,7.54931 -0.26957,13.76231 -1.94155,15.38787 -2.59535,1.23974 -9.98867,-0.26165 -15.29829,-2.59542 3.55163,8.36901 4.0925,20.09007 2.3778,23.97308 -4.21583,2.01441 -15.49203,1.01059 -20.03198,-2.0782 -2.32544,-5.11216 -0.43535,-15.99105 4.67347,-23.17359 -2.39361,0.36259 -10.27958,2.13732 -13.36938,0.27289 -2.41838,-3.00613 -2.39883,-9.24583 1.29566,-14.2502 z"
             style="fill:#f1aed1;fill-opacity:1;stroke:#000000;stroke-width:1.3;stroke-linecap:round;stroke-linejoin:round;stroke-dasharray:none;stroke-opacity:1" /><path
             sodipodi:nodetypes="cssccssscccccccccccssccccccc"
             id="path101"
             d="m 157.50803,174.14823 c 1.08088,3.98838 2.46609,10.23464 -0.38253,13.57992 -1.98231,1.85414 -4.02902,1.54604 -7.55503,1.19542 -1.74467,-0.17349 -5.83363,-0.71725 -5.83363,-0.71725 l -0.91717,-0.0793 c 0.1574,6.9905 3.33828,16.80183 0.0565,21.16641 -0.73239,0.97402 -3.81212,1.12523 -6.74214,1.33886 -3.08687,0.22508 -7.79554,-0.69092 -9.81433,-2.48888 -0.72283,-0.64376 -1.35246,-2.56967 -1.35246,-2.56967 l 0.27049,4.125 2.90779,1.69057 6.08607,1.35246 10.07582,0.0676 1.89344,-1.82581 0.27049,-1.89345 0.13525,-8.62192 -0.84529,-4.09119 -1.08197,-4.73361 -0.50717,-2.90779 c 0,0 2.09631,0.60861 2.26537,0.64242 0.16906,0.0338 8.28381,1.85963 8.5543,1.85963 0.27049,0 3.58402,-0.54098 3.58402,-0.54098 l 1.75819,-3.11066 0.81148,-3.2459 0.27049,-3.65164 0.0676,-2.56967 -0.94672,-3.04303 z"
             style="opacity:1;fill:#bd84a2;fill-opacity:1;stroke:#000000;stroke-width:0;stroke-linecap:round;stroke-linejoin:round;stroke-dasharray:none;stroke-opacity:1" /><path
             sodipodi:nodetypes="cscccccc"
             id="path102"
             d="m 147.22745,172.42683 c 0,0 -7.94855,-0.70407 -11.90634,-0.38254 -1.9753,0.16047 -5.83363,1.1476 -5.83363,1.1476 l -9.27643,1.62577 10.99783,-3.92096 4.39913,-0.19127 11.57163,1.1476 z"
             style="opacity:1;fill:#fbe6f1;fill-opacity:1;stroke:#000000;stroke-width:0;stroke-linecap:round;stroke-linejoin:round;stroke-dasharray:none;stroke-opacity:1" /><path
             sodipodi:nodetypes="ccccccccc"
             id="path103"
             d="m 118.33259,172.99119 c 4.97893,-5.23157 38.42279,-0.75214 42.29427,2.46357 2.44394,7.54931 -0.26957,13.76231 -1.94155,15.38787 -2.59535,1.23974 -9.98867,-0.26165 -15.29829,-2.59542 3.55163,8.36901 4.0925,20.09007 2.3778,23.97308 -4.21583,2.01441 -15.49203,1.01059 -20.03198,-2.0782 -2.32544,-5.11216 -0.43535,-15.99105 4.67347,-23.17359 -2.39361,0.36259 -10.27958,2.13732 -13.36938,0.27289 -2.41838,-3.00613 -2.39883,-9.24583 1.29566,-14.2502 z"
             style="fill:none;fill-opacity:1;stroke:#000000;stroke-width:1.3;stroke-linecap:round;stroke-linejoin:round;stroke-dasharray:none;stroke-opacity:1" /></g><g
           style="stroke:#000000;stroke-opacity:1"
           transform="matrix(0.15349801,-0.00638889,0.00638889,0.15349801,68.20348,144.92081)"
           id="g108"><path
             sodipodi:nodetypes="cccsscccccsccc"
             id="path104"
             d="m 229.33183,-200.67127 c -5.76237,6.37181 -3.67151,49.32379 -1.46243,55.24398 3.17754,4.00534 19.41343,3.0887 21.96247,0 1.40306,-1.99398 2.58908,-11.41164 -0.0407,-17.36176 -0.0592,-0.13382 0.0134,-0.54912 -0.12088,-0.59591 -0.94061,-0.32932 -1.93946,-0.55966 -3.3061,-0.92236 6.86829,2.33903 13.29949,1.07247 15.41227,-0.3853 2.47826,-1.76736 4.94088,-10.37628 1.26557,-16.02745 0,0 -3.8308,0.25976 -7.07765,0.11366 -3.86109,-0.15745 -8.44428,-0.65446 -8.44428,-0.65446 15.5762,1.68152 21.95849,-0.16267 25.36234,-2.12532 5.10607,-2.94411 4.35116,-17.18071 1.99444,-20.99309 -16.20189,-3.78171 -33.06799,-1.24639 -45.54499,3.70797 z"
             style="fill:#94e9e8;fill-opacity:1;stroke:#000000;stroke-width:1.73636;stroke-linecap:round;stroke-linejoin:round;stroke-dasharray:none;stroke-opacity:1" /><path
             sodipodi:nodetypes="csssccssscssccccccccccccccccccccccc"
             id="path105"
             d="m 271.77021,-205.18515 c 0,0 0.79463,6.36314 0.57868,10.20963 -0.15274,2.72089 0.45174,6.02825 -1.916,7.94784 -4.19442,3.40049 -11.14251,2.50183 -18.4594,3.97148 -1.63018,0.32742 -4.91588,1.7482 -4.91588,1.7482 l 11.24057,0.63867 c 0,0 2.03474,1.63624 2.42696,2.81014 1.00072,2.9952 1.52377,7.1509 -0.63868,9.4523 -2.70505,2.87887 -6.37078,2.56105 -9.76444,2.97795 -0.89846,0.11032 -3.77534,0.59859 -3.77534,0.59859 0.77008,3.39435 3.01491,14.45875 0.25547,17.24407 -3.39683,3.42869 -14.87429,2.05792 -17.24406,0.7664 -0.98703,-0.53792 -2.04375,-2.68241 -2.04375,-2.68241 l 0.12769,4.21522 2.61854,1.53281 6.51442,1.08573 8.94137,-0.63868 4.08749,-1.72439 1.21347,-3.44881 0.76639,-7.1531 -1.53279,-5.68416 v -1.66053 l 3.95974,0.25547 5.87576,-1.02188 2.81014,-2.17147 1.5328,-3.89588 0.44708,-3.95975 -0.12769,-2.874 -1.40507,-4.0875 9.38844,-2.36307 2.36306,-1.97987 1.85214,-8.8775 -0.57481,-6.51442 -1.66053,-4.08749 z"
             style="fill:#7fc6c5;fill-opacity:1;stroke:#000000;stroke-width:0;stroke-linecap:round;stroke-linejoin:round;stroke-dasharray:none;stroke-opacity:1" /><path
             sodipodi:nodetypes="cssssccccccc"
             id="path106"
             d="m 263.32168,-206.16507 c 0,0 -12.35555,2.14259 -16.43851,2.79996 -4.68472,0.75424 -10.61956,1.78176 -14.36111,4.78703 -1.40915,1.13185 -2.09421,2.99729 -2.70965,4.69672 -1.56067,4.30952 -1.68673,9.01281 -2.34836,13.54822 -0.51643,3.54009 -1.26449,10.65792 -1.26449,10.65792 l -0.72258,-12.10307 1.98707,-14.27078 1.80643,-4.51608 3.25158,-1.80642 12.23635,-2.69492 z"
             style="fill:#d4f6f6;fill-opacity:1;stroke:#000000;stroke-width:0;stroke-linecap:round;stroke-linejoin:round;stroke-dasharray:none;stroke-opacity:1" /><path
             sodipodi:nodetypes="cccsscccccsccc"
             id="path107"
             d="m 229.33183,-200.67127 c -5.76237,6.37181 -3.67151,49.32379 -1.46243,55.24398 3.17754,4.00534 19.41343,3.0887 21.96247,0 1.40306,-1.99398 2.58908,-11.41164 -0.0407,-17.36176 -0.0592,-0.13382 0.0134,-0.54912 -0.12088,-0.59591 -0.94061,-0.32932 -1.93946,-0.55966 -3.3061,-0.92236 6.86829,2.33903 13.29949,1.07247 15.41227,-0.3853 2.47826,-1.76736 4.94088,-10.37628 1.26557,-16.02745 0,0 -3.8308,0.25976 -7.07765,0.11366 -3.86109,-0.15745 -8.44428,-0.65446 -8.44428,-0.65446 15.5762,1.68152 21.95849,-0.16267 25.36234,-2.12532 5.10607,-2.94411 4.35116,-17.18071 1.99444,-20.99309 -16.20189,-3.78171 -33.06799,-1.24639 -45.54499,3.70797 z"
             style="fill:none;fill-opacity:1;stroke:#000000;stroke-width:1.73636;stroke-linecap:round;stroke-linejoin:round;stroke-dasharray:none;stroke-opacity:1" /></g><g
           style="stroke:#000000;stroke-opacity:1"
           transform="matrix(0.19982287,0.04666336,-0.04666336,0.19982287,91.679499,76.020768)"
           id="g112"><path
             sodipodi:nodetypes="ccscsssssssccsscsssc"
             id="path108"
             d="m 61.583975,169.57311 c 0.421376,4.54263 -0.832803,11.70123 -6.659865,15.35123 0,0 -5.913828,-2.29687 -9.792899,-3.08405 -1.975854,-0.40097 -7.891498,-0.36554 -7.891498,-0.36554 0,0 3.926408,-0.1834 7.925604,0.34653 2.56366,0.3397 3.132111,0.72537 5.999001,1.6541 1.307261,0.42349 2.79546,1.18782 3.808514,1.31548 0.796028,0.10031 2.292886,-2.21627 3.045639,-2.04501 3.147307,0.71603 5.994651,1.77472 7.960998,3.32725 4.990354,3.94013 7.072742,9.86046 4.530735,15.68853 -3.451664,7.91364 -13.542421,11.45715 -21.639341,11.09017 -18.121596,-0.82133 -26.835876,-6.80191 -26.835876,-6.80191 0.175063,-5.03972 1.811326,-10.7291 5.595796,-13.56555 0.881824,0.55913 2.06161,0.97473 3.071507,1.31912 4.210122,1.43574 10.452833,1.83827 14.388661,1.78568 6.448754,-0.0862 9.189746,-0.5898 9.189746,-0.5898 0.352704,-0.0672 -17.702072,2.30876 -25.967213,-2.16394 -5.862114,-3.1723 -8.594066,-11.24917 -6.565396,-17.59837 3.106894,-9.72376 14.278388,-13.60758 24.417855,-12.42622 11.833094,1.37868 15.418032,6.7623 15.418032,6.7623 z"
             style="fill:#d1fd99;fill-opacity:1;stroke:#000000;stroke-width:1.3;stroke-linecap:round;stroke-linejoin:round;stroke-dasharray:none;stroke-opacity:1" /><path
             sodipodi:nodetypes="csssccccccccccsssccccccccccccccc"
             id="path109"
             d="m 57.952869,166.96106 c 0,0 1.078925,3.38066 0.811475,5.07172 -0.54173,3.4253 -1.629783,7.71761 -4.733608,9.26435 -2.683311,1.33718 -6.272635,-0.88731 -9.264345,-1.08197 -3.878514,-0.25236 -7.438522,1.01435 -7.438522,1.01435 l 4.733607,0.40573 3.854508,0.13525 6.762295,2.29918 2.028687,0.8791 1.893443,-0.81148 1.217213,-1.4877 3.245901,1.21721 7.641394,16.43238 -1.420082,3.51639 c 0,0 -5.346931,4.17508 -8.520491,5.13935 -5.484228,1.66635 -11.471815,1.37106 -17.176229,0.81147 -5.583381,-0.54772 -17.624364,-4.976 -17.886271,-5.57889 -0.320639,-0.73808 -0.43955,-4.29406 -0.43955,-4.29406 l -1.284835,6.22131 4.327869,2.23156 7.438524,2.50205 12.84836,2.09631 8.655737,-0.54098 7.032787,-2.16394 5.004099,-3.51639 1.622951,-1.89344 1.014344,-4.3955 -0.06762,-7.57377 -10.27869,-12.30737 1.758199,-5.61271 0.405736,-5.40983 z"
             style="opacity:1;fill:#b3db81;fill-opacity:1;stroke:#000000;stroke-width:0;stroke-linecap:round;stroke-linejoin:round;stroke-dasharray:none;stroke-opacity:1" /><path
             sodipodi:nodetypes="ccscssscccsssc"
             id="path110"
             d="m 61.583975,169.57311 c 0.421376,4.54263 -0.832803,11.70123 -6.659865,15.35123 0,0 -5.913828,-2.29687 -9.792899,-3.08405 -1.975854,-0.40097 -7.891498,-0.36554 -7.891498,-0.36554 0,0 21.070587,-1.45683 28.739756,4.59835 4.99035,3.94013 7.072742,9.86046 4.530735,15.68853 -3.451664,7.91364 -13.542421,11.45715 -21.639341,11.09017 -18.121596,-0.82133 -26.835876,-6.80191 -26.835876,-6.80191 0.218317,-6.28492 3.062327,-13.87761 8.983415,-15.24317 l 23.262295,4.19262 c 0,0 -18.630773,2.48566 -25.967213,-2.16394 -5.629973,-3.56809 -8.594066,-11.24917 -6.565396,-17.59837 3.106894,-9.72376 14.278388,-13.60758 24.417855,-12.42622 11.833094,1.37868 15.418032,6.7623 15.418032,6.7623 z"
             style="fill:none;fill-opacity:1;stroke:#000000;stroke-width:0;stroke-linecap:round;stroke-linejoin:round;stroke-dasharray:none;stroke-opacity:1" /><path
             sodipodi:nodetypes="csssscccccccc"
             id="path111"
             d="m 48.486081,163.1504 c 0,0 -6.661874,0.0256 -9.850231,0.8607 -3.588289,0.9399 -7.064781,2.57105 -9.90045,4.96233 -1.862009,1.57021 -3.016625,3.72347 -4.004,5.45348 -1.628756,2.85381 -1.960211,6.47803 -1.875043,9.76281 0.03651,1.40793 0.382533,4.20787 0.382533,4.20787 l -2.199565,-7.65067 0.669432,-6.50306 4.303499,-6.21616 6.503064,-3.53844 6.311797,-1.53013 7.650662,-0.0956 z"
             style="opacity:1;fill:#eafed2;fill-opacity:1;stroke:#000000;stroke-width:0;stroke-linecap:round;stroke-linejoin:round;stroke-dasharray:none;stroke-opacity:1" /><path
             sodipodi:nodetypes="ccscsssssssccsscsssc"
             id="path112"
             d="m 61.583975,169.57311 c 0.421376,4.54263 -0.832803,11.70123 -6.659865,15.35123 0,0 -5.913828,-2.29687 -9.792899,-3.08405 -1.975854,-0.40097 -7.891498,-0.36554 -7.891498,-0.36554 0,0 3.926408,-0.1834 7.925604,0.34653 2.56366,0.3397 3.132111,0.72537 5.999001,1.6541 1.307261,0.42349 2.79546,1.18782 3.808514,1.31548 0.796028,0.10031 2.292886,-2.21627 3.045639,-2.04501 3.147307,0.71603 5.994651,1.77472 7.960998,3.32725 4.990354,3.94013 7.072742,9.86046 4.530735,15.68853 -3.451664,7.91364 -13.542421,11.45715 -21.639341,11.09017 -18.121596,-0.82133 -26.835876,-6.80191 -26.835876,-6.80191 0.175063,-5.03972 1.811326,-10.7291 5.595796,-13.56555 0.881824,0.55913 2.06161,0.97473 3.071507,1.31912 4.210122,1.43574 10.452833,1.83827 14.388661,1.78568 6.448754,-0.0862 9.189746,-0.5898 9.189746,-0.5898 0.352704,-0.0672 -17.702072,2.30876 -25.967213,-2.16394 -5.862114,-3.1723 -8.594066,-11.24917 -6.565396,-17.59837 3.106894,-9.72376 14.278388,-13.60758 24.417855,-12.42622 11.833094,1.37868 15.418032,6.7623 15.418032,6.7623 z"
             style="fill:none;fill-opacity:1;stroke:#000000;stroke-width:1.3;stroke-linecap:round;stroke-linejoin:round;stroke-dasharray:none;stroke-opacity:1" /></g><g
           style="stroke:#000000;stroke-opacity:1"
           transform="matrix(0.20519904,0,0,0.20519904,81.653656,77.755157)"
           id="g116"><path
             sodipodi:nodetypes="sssssssssssssssssssss"
             id="path113"
             d="m 78.152741,225.96062 c 2.205152,0.003 1.691514,-2.33559 1.679561,-4.04342 -0.02914,-4.19326 -0.462197,-7.30307 1.244135,-9.95303 1.35642,-2.10653 4.590847,-0.73434 6.593865,-2.23942 1.22268,-0.91872 1.66619,-2.71071 2.98591,-3.48358 1.45978,-0.85488 3.29306,-0.82859 4.97651,-0.99528 1.91901,-0.18986 4.31489,1.36477 5.785198,0 1.21731,-1.12994 -0.64343,-2.67415 -0.0622,-4.23004 0.50294,-1.34629 1.69057,-2.71516 2.23942,-4.04341 1.69488,-4.10179 1.6657,-8.81625 0.99531,-12.37909 -1.43806,-7.64262 -11.440628,-16.71991 -20.279286,-16.42246 -16.462872,0.554 -22.329885,7.90058 -26.002257,16.92014 -1.856253,4.55907 1.698502,13.26886 2.488246,14.55627 0.727172,1.18543 -0.591548,2.89103 0.186617,4.16785 0.872591,1.43174 3.443473,-0.69092 4.292242,-0.6843 2.412691,0.0206 2.806328,3.08589 3.919004,3.608 1.464163,0.68707 2.7073,-1.26281 4.043413,-0.74649 2.797909,1.08116 3.203488,4.46266 3.732385,7.09154 0.629354,3.12816 -0.320227,7.14948 -0.559859,9.95302 -0.144966,1.69612 -0.457213,2.91926 1.741786,2.9237 z"
             style="fill:#fddf99;fill-opacity:1;stroke:#000000;stroke-width:1.3;stroke-dasharray:none;stroke-opacity:1" /><path
             transform="matrix(1.3009357,0,0,1.3009357,-165.01201,-18.821499)"
             clip-path="url(#clipPath5)"
             sodipodi:nodetypes="caaacc"
             id="path114"
             d="m 187.24999,141.34601 c 0,0 10.86805,4.28289 12.62359,9.18079 1.80005,5.02208 0.30248,12.36098 -4.0166,15.4926 -4.96476,3.59978 -12.98635,1.80435 -18.36159,-1.1476 -4.56055,-2.50454 -9.18079,-12.6236 -9.18079,-12.6236 3.68911,-7.46722 2.88008,-21.50864 18.93539,-10.90219 z"
             style="fill:#feebb3;fill-opacity:1;stroke:#000000;stroke-width:0;stroke-dasharray:none;stroke-opacity:1" /><path
             sodipodi:nodetypes="aassa"
             id="path115"
             d="m 70.252523,173.33401 c -0.817625,0.40959 -1.858804,1.46353 -1.492953,2.30163 0.387326,0.8873 2.228422,0.85099 2.861497,0.49766 0.546186,-0.30483 1.845965,-2.05309 1.430743,-2.61267 -0.557269,-0.75099 -1.963162,-0.60546 -2.799287,-0.18662 z"
             style="fill:#f9f9f9;fill-opacity:1;stroke:#000000;stroke-width:0;stroke-dasharray:none;stroke-opacity:1" /><path
             sodipodi:nodetypes="aaaaa"
             id="path116"
             d="m 73.549458,176.38213 c -0.403277,0.28334 -0.667302,1.03521 -0.373239,1.43074 0.334264,0.44961 1.267438,0.44168 1.679572,0.0622 0.335928,-0.30932 0.36239,-1.02443 0.0622,-1.36853 -0.30113,-0.34517 -0.993733,-0.38773 -1.36852,-0.12436 z"
             style="fill:#f9f9f9;fill-opacity:1;stroke:#000000;stroke-width:0;stroke-dasharray:none;stroke-opacity:1" /></g></g></clipPath><clipPath
       id="clipPath169"
       clipPathUnits="userSpaceOnUse"><g
         style="fill:#e381f6;fill-opacity:1;stroke:#000000;stroke-opacity:1"
         transform="matrix(0.81895246,0,0,0.81895246,-395.92679,-300.25708)"
         id="g170"><path
           sodipodi:nodetypes="ssscsssscccccssccccccsss"
           d="m 616.39018,481.29184 c 0.3561,0.0938 5.09909,6.70355 2.68455,12.63726 -1.05606,2.59525 -2.61366,4.83504 -4.74321,6.0215 -1.1011,0.61347 -1.87323,0.18602 -1.87323,0.18602 0,0 0.095,0.72224 -1.12267,1.36175 -3.59196,1.88655 -8.13659,0.74404 -11.3474,-2.18782 -5.11191,-4.66779 -3.76176,-12.25158 1.59493,-11.20104 0.51681,0.10135 0.7892,0.36984 1.30574,0.88954 1.70432,1.71475 2.34101,3.87754 2.16276,4.71323 -0.26903,0.0865 0,0 0,0 l 0.539,-0.13335 c -0.40274,-2.02599 -0.61355,-3.20637 -2.62861,-5.16314 -0.10209,-0.099 -0.14999,-0.19948 -0.11921,-0.29698 0.69914,-3.82175 2.80977,-5.64451 6.91362,-3.52564 0.16081,0.0831 0.26293,0.15481 0.39439,0.23222 1.86303,1.09694 2.93506,4.45858 2.73354,5.4034 -0.26904,0.0865 0,0 0,0 l 0.53899,-0.13334 c -0.45529,-2.29038 -0.73174,-4.19144 -3.37055,-5.95655 -0.069,-0.049 -0.12982,-0.0712 -0.13003,-0.19582 0.23718,-4.19244 2.49913,-7.52096 7.9969,-6.27541 0,0 -1.84609,2.20778 -1.5297,3.62417 0,0 0,0 0,0 z"
           style="fill:#e381f6;fill-opacity:1;stroke:#000000;stroke-width:0.288441;stroke-linecap:round;stroke-linejoin:round;stroke-dasharray:none;stroke-opacity:1"
           id="path170" /></g></clipPath><clipPath
       id="clipPath172"
       clipPathUnits="userSpaceOnUse"><g
         style="fill:#e381f6;fill-opacity:1;stroke:#000000;stroke-opacity:1"
         transform="matrix(0.81895246,0,0,0.81895246,-395.92679,-300.25708)"
         id="g173"><path
           sodipodi:nodetypes="ssscsssscccccssccccccsss"
           d="m 616.39018,481.29184 c 0.3561,0.0938 5.09909,6.70355 2.68455,12.63726 -1.05606,2.59525 -2.61366,4.83504 -4.74321,6.0215 -1.1011,0.61347 -1.87323,0.18602 -1.87323,0.18602 0,0 0.095,0.72224 -1.12267,1.36175 -3.59196,1.88655 -8.13659,0.74404 -11.3474,-2.18782 -5.11191,-4.66779 -3.76176,-12.25158 1.59493,-11.20104 0.51681,0.10135 0.7892,0.36984 1.30574,0.88954 1.70432,1.71475 2.34101,3.87754 2.16276,4.71323 -0.26903,0.0865 0,0 0,0 l 0.539,-0.13335 c -0.40274,-2.02599 -0.61355,-3.20637 -2.62861,-5.16314 -0.10209,-0.099 -0.14999,-0.19948 -0.11921,-0.29698 0.69914,-3.82175 2.80977,-5.64451 6.91362,-3.52564 0.16081,0.0831 0.26293,0.15481 0.39439,0.23222 1.86303,1.09694 2.93506,4.45858 2.73354,5.4034 -0.26904,0.0865 0,0 0,0 l 0.53899,-0.13334 c -0.45529,-2.29038 -0.73174,-4.19144 -3.37055,-5.95655 -0.069,-0.049 -0.12982,-0.0712 -0.13003,-0.19582 0.23718,-4.19244 2.49913,-7.52096 7.9969,-6.27541 0,0 -1.84609,2.20778 -1.5297,3.62417 0,0 0,0 0,0 z"
           style="fill:#e381f6;fill-opacity:1;stroke:#000000;stroke-width:0.288441;stroke-linecap:round;stroke-linejoin:round;stroke-dasharray:none;stroke-opacity:1"
           id="path173" /></g></clipPath><clipPath
       id="clipPath175"
       clipPathUnits="userSpaceOnUse"><g
         style="fill:none;fill-opacity:1;stroke:#000000;stroke-opacity:1"
         transform="matrix(0.81895246,0,0,0.81895246,-395.92679,-300.25708)"
         id="g176"><path
           sodipodi:nodetypes="ssscsssscccccssccccccsss"
           d="m 616.39018,481.29184 c 0.3561,0.0938 5.09909,6.70355 2.68455,12.63726 -1.05606,2.59525 -2.61366,4.83504 -4.74321,6.0215 -1.1011,0.61347 -1.87323,0.18602 -1.87323,0.18602 0,0 0.095,0.72224 -1.12267,1.36175 -3.59196,1.88655 -8.13659,0.74404 -11.3474,-2.18782 -5.11191,-4.66779 -3.76176,-12.25158 1.59493,-11.20104 0.51681,0.10135 0.7892,0.36984 1.30574,0.88954 1.70432,1.71475 2.34101,3.87754 2.16276,4.71323 -0.26903,0.0865 0,0 0,0 l 0.539,-0.13335 c -0.40274,-2.02599 -0.61355,-3.20637 -2.62861,-5.16314 -0.10209,-0.099 -0.14999,-0.19948 -0.11921,-0.29698 0.69914,-3.82175 2.80977,-5.64451 6.91362,-3.52564 0.16081,0.0831 0.26293,0.15481 0.39439,0.23222 1.86303,1.09694 2.93506,4.45858 2.73354,5.4034 -0.26904,0.0865 0,0 0,0 l 0.53899,-0.13334 c -0.45529,-2.29038 -0.73174,-4.19144 -3.37055,-5.95655 -0.069,-0.049 -0.12982,-0.0712 -0.13003,-0.19582 0.23718,-4.19244 2.49913,-7.52096 7.9969,-6.27541 0,0 -1.84609,2.20778 -1.5297,3.62417 0,0 0,0 0,0 z"
           style="fill:none;fill-opacity:1;stroke:#000000;stroke-width:0.288441;stroke-linecap:round;stroke-linejoin:round;stroke-dasharray:none;stroke-opacity:1"
           id="path176" /></g></clipPath><clipPath
       id="clipPath5-5"
       clipPathUnits="userSpaceOnUse"><path
         d="m 190.51172,144.32031 c -4.83697,0.28625 -9.91994,1.54299 -13.50412,4.99621 -2.36008,2.25848 -3.98256,5.20181 -5.05643,8.25965 -0.50794,2.68879 0.30268,5.41678 1.15797,7.94918 0.28507,0.93559 0.80422,1.78081 1.13109,2.69145 0.24585,0.90428 -0.52214,1.90523 0.0117,2.73047 1.20578,0.14314 2.1794,-1.2515 3.4239,-0.76942 1.31944,0.32975 1.75498,1.74917 2.52532,2.68738 0.81143,0.33533 1.44568,-0.53067 2.23828,-0.61914 1.4112,-0.16031 2.55801,1.0853 3.11328,2.26172 0.65755,1.5662 0.95852,3.27175 1.12636,4.95382 0.15201,2.64867 -0.62472,5.20842 -0.63221,7.79423 0.19106,0.51417 1.02958,0.44756 1.42773,0.21094 0.49039,-0.87464 0.11988,-1.9464 0.19479,-2.90618 -0.006,-2.56434 -0.40026,-5.43479 1.19389,-7.65046 1.11304,-1.39383 3.07013,-0.85872 4.56054,-1.38672 1.41719,-0.61738 1.64037,-2.52755 3.09765,-3.1211 1.39146,-0.61959 2.96354,-0.658 4.46094,-0.6914 1.0998,0.0487 2.23309,0.72924 3.3047,0.25195 0.68663,-0.48245 -0.0399,-1.30825 -0.096,-1.94482 -0.30921,-1.46833 0.93047,-2.61637 1.53615,-3.82613 1.46882,-3.05583 1.57397,-6.6232 0.95014,-9.91063 -0.83628,-3.54756 -3.33987,-6.47326 -6.1476,-8.68105 -2.81017,-2.16821 -6.35024,-3.7066 -10.01806,-3.27995 z"
         style="opacity:1;fill:#feebb3;fill-opacity:1;stroke:#000000;stroke-width:0;stroke-dasharray:none;stroke-opacity:1"
         id="path5-4-0" /></clipPath></defs><sodipodi:namedview
     id="namedview1"
     pagecolor="#ffffff"
     bordercolor="#000000"
     borderopacity="0.25"
     inkscape:showpageshadow="2"
     inkscape:pageopacity="0.0"
     inkscape:pagecheckerboard="0"
     inkscape:deskcolor="#d1d1d1"
     showgrid="false"
     showguides="false"
     inkscape:zoom="0.070026905"
     inkscape:cx="2670.4022"
     inkscape:cy="1206.6791"
     inkscape:window-width="1920"
     inkscape:window-height="1094"
     inkscape:window-x="-11"
     inkscape:window-y="-11"
     inkscape:window-maximized="1"
     inkscape:current-layer="g1" /><g
     id="g1"
     inkscape:groupmode="layer"
     inkscape:label="1"
     transform="translate(-697.25085,-1491.6124)"><g
       id="g72"
       transform="rotate(-31.485764,1587.8515,1096.6902)"
       style="stroke:#dc138e;stroke-opacity:0.992157"><circle
         id="circle36"
         style="fill:#000000;stroke:#dc138e;stroke-width:0.296027;stroke-opacity:0.992157"
         cx="666.37189"
         cy="1020.1176"
         r="0.38820595" /><g
         id="g38"
         transform="matrix(1.1188455,0,0,1.1188455,142.62079,526.14493)"
         style="fill:#fc93dd;fill-opacity:1;stroke:#000000;stroke-opacity:0.992157"><path
           style="opacity:1;fill:#fc93dd;fill-opacity:1;stroke:#000000;stroke-width:1.8336;stroke-linecap:round;stroke-linejoin:round;stroke-opacity:0.992157"
           d="m 504.92598,496.20919 c 0.97105,1.23671 0.93959,6.10745 -0.46122,6.73802 -0.45974,0.20695 -6.65789,0 -6.65789,0 l -0.0472,1.51099 c 2.46674,-0.55994 4.83202,-0.55171 5.09965,-0.42494 1.03027,0.48802 0.69716,4.24313 0.14162,4.53301 -0.42338,0.22093 -4.48581,0.56664 -4.48581,0.56664 l 0.51943,2.12488 c 2.35531,-0.78251 6.4717,-3.1131 6.75232,-2.97483 2.6282,1.29499 3.50296,6.72764 3.44698,7.4134 -0.18577,2.27518 -12.40731,5.66301 -13.12691,5.28854 -9.16831,-4.77122 -6.10076,-22.57185 -4.34414,-23.51514 4.08054,-2.1912 12.97469,-1.50063 13.16318,-1.26057 z"
           id="path36"
           sodipodi:nodetypes="ssccssccsssss" /><path
           style="opacity:1;fill:#fc93dd;fill-opacity:1;stroke:#000000;stroke-width:1.8336;stroke-linecap:round;stroke-linejoin:round;stroke-opacity:0.992157"
           d="m 519.33879,508.23574 c 0.45376,0.4209 6.4062,-0.0712 6.61067,-0.9916 0.42839,-1.9282 -0.64006,-11.51406 -9.72715,-11.23814 -6.97507,0.2118 -9.94323,5.43022 -9.20774,9.86878 0.46184,2.78709 3.11994,5.84604 6.53158,6.95025 2.47751,0.80188 6.68136,-0.32353 6.78424,0.17983 0.16286,0.79686 -2.9957,3.30986 -4.81638,2.88039 -1.30888,-0.30875 -2.17204,-3.3998 -2.17204,-3.3998 -1.7253,0.0115 -3.53346,0.37246 -5.5719,1.6999 0,0 -0.53226,6.23673 9.72715,6.23291 3.62783,-10e-4 9.40177,-1.61606 9.53828,-5.24131 0.27761,-7.37198 -6.04686,-4.22236 -8.97598,-5.66153 -3.85074,-1.89201 -3.12748,-7.36565 -1.08171,-7.79591 2.26079,-0.47549 1.74531,5.94515 2.36098,6.51623 z"
           id="path37"
           sodipodi:nodetypes="sssssssccsssss" /><path
           style="opacity:1;fill:#fc93dd;fill-opacity:1;stroke:#000000;stroke-width:1.8336;stroke-linecap:round;stroke-linejoin:round;stroke-opacity:0.992157"
           d="m 525.05229,497.65863 c -1.03784,0.95864 -0.78915,4.8088 0.56663,6.51628 0.50974,0.64196 6.04404,0.37771 6.04404,0.37771 0,0 -0.2477,14.90696 1.32216,16.05452 0.88213,0.64482 8.83604,-2.48957 9.25495,-3.4942 0.34126,-0.81843 -2.92759,-12.18256 -2.92759,-12.18256 0,0 4.83511,0.28398 5.57183,-0.37776 1.33997,-1.2036 1.04303,-7.38264 -0.66106,-8.12165 -2.13774,-0.92708 -17.57882,-0.24298 -19.17096,1.22766 z"
           id="path38"
           sodipodi:nodetypes="sscsscsss" /></g><g
         id="g41"
         transform="matrix(1.0117798,0,0,1.0117798,249.30791,524.69485)"
         style="fill:#feebb3;fill-opacity:1;stroke:#000000;stroke-opacity:0.992157"><path
           id="path39"
           style="opacity:1;fill:#feebb3;fill-opacity:1;stroke:#000000;stroke-width:2.01368;stroke-linecap:round;stroke-linejoin:round;stroke-opacity:0.992157"
           d="m 416.2206,583.70096 c -0.37395,0.0127 -0.72529,0.0517 -1.0406,0.12408 -1.85491,0.42657 -6.82023,15.25364 -6.82023,15.25364 0,0 -1.81819,-0.45424 -2.19962,0 -0.58358,0.69502 -0.66279,3.30229 -0.39288,3.852 0.18442,0.37562 1.27256,0.25484 1.27256,0.25484 0,0 -1.19284,5.67171 -0.40921,6.62584 0.95651,1.16464 10.35829,0.39299 11.18927,-0.31856 0.67346,-0.57668 0.44024,-5.94053 0.44024,-5.94053 l 4.32656,0.0735 c 0,0 -0.32198,5.39543 0.51377,6.37998 0.77095,0.9082 5.85558,0.44045 6.16026,-0.21972 0.74743,-1.61952 -1.31994,-6.6732 -1.31994,-6.6732 0,0 3.2369,-0.99188 3.37336,-1.83371 0.31742,-1.95789 -1.42003,-4.63687 -2.9331,-5.42678 -0.54455,-0.28428 -2.7869,1.02671 -2.7869,1.02671 -1.07067,-2.40544 -2.28818,-4.76215 -4.18036,-6.89374 0,0 1.72637,-3.30417 1.53966,-3.88712 -0.38015,-1.18692 -4.11512,-2.48081 -6.73284,-2.39729 z m 3.32272,11.60093 c 0.72105,0.88494 1.07868,1.84292 1.32076,2.82365 -0.5979,0.20137 -1.24901,0.2237 -1.90722,0.22054 -0.0816,-1.01449 0.0817,-2.0297 0.58646,-3.04419 z" /><path
           style="opacity:1;fill:#feebb3;fill-opacity:1;stroke:#000000;stroke-width:2.01368;stroke-linecap:round;stroke-linejoin:round;stroke-opacity:0.992157"
           d="m 430.23248,584.44572 c 0.51433,-0.72916 5.77813,-1.57354 7.15617,-0.20743 2.63325,2.61046 6.63761,15.97177 6.63761,15.97177 0,0 -1.3968,-15.46281 -0.93342,-15.97177 0.546,-0.59971 8.98314,-1.46341 10.06014,-0.20742 1.39802,1.63035 1.51268,21.13428 -0.31114,25.09848 -0.24595,0.53462 -8.89442,2.13738 -9.88937,0.98785 -1.00659,-1.163 -3.90445,-8.14402 -3.90445,-8.14402 0,0 1.56472,6.67045 1.14086,7.67474 -0.27153,0.64337 -6.43175,0.49664 -6.81413,0.16963 -1.56242,-1.33615 -5.97888,-21.35035 -3.14227,-25.37183 z"
           id="path40"
           sodipodi:nodetypes="sscsssscsss" /><path
           style="opacity:1;fill:#feebb3;fill-opacity:1;stroke:#000000;stroke-width:2.06777;stroke-linecap:round;stroke-linejoin:round;stroke-opacity:0.992157"
           d="m 383.86108,585.54784 c 0.48248,-0.77896 5.82623,-1.96731 7.32254,-0.65153 2.85926,2.51427 5.10103,16.41143 5.10103,16.41143 0,0 0.30216,-16.21117 0.74592,-16.76129 0.52287,-0.64821 6.38343,-1.88737 7.56442,-0.666 1.53301,1.58541 2.84116,24.94296 -1.46185,26.19274 -2.8426,0.82561 -11.30624,2.76967 -12.3966,1.6524 -3.35675,-8.24931 -4.23333,-16.55798 -6.87546,-26.17775 z"
           id="path41"
           sodipodi:nodetypes="cscssscc" /></g><g
         id="g50"
         transform="rotate(12.070382,553.75488,1062.631)"
         inkscape:transform-center-x="-9.9865865"
         inkscape:transform-center-y="-27.773834"
         style="stroke:none;stroke-opacity:0.992157"><path
           id="path42"
           style="fill:#feebb3;fill-opacity:1;stroke:none;stroke-width:1.21591;stroke-linecap:round;stroke-linejoin:round;stroke-dasharray:none;stroke-opacity:0.992157"
           d="m 580.92699,1040.1014 c -21.15555,24.9144 -34.52697,67.3459 -46.42288,113.0947 -1.74467,5.8597 6.29406,8.519 9.3774,5.5162 24.36642,-23.7294 37.89153,-54.1418 75.299,-61.0098 -8.54812,-2.4459 -16.37541,-7.1869 -22.77163,-13.3834 -1.21408,0.9098 -2.59172,1.9222 -4.28092,3.1261 -1.91769,1.4711 -4.30869,3.3107 -6.74917,5.3924 -0.45414,-0.4062 -0.92399,-0.8535 -1.39486,-1.3246 2.59905,-2.1309 5.15129,-3.9391 7.24915,-5.3564 1.66782,-1.047 3.0702,-1.9007 4.33248,-2.6548 -2.18226,-2.2016 -4.18652,-4.5763 -5.98138,-7.0891 -1.33716,-1.8288 -2.55419,-3.7542 -3.63837,-5.7543 -0.98949,1.5223 -2.71434,3.9426 -4.98477,6.9961 -0.90036,1.2758 -1.97247,2.8053 -3.08433,4.4218 -0.29469,-0.6228 -0.58228,-1.2381 -0.87202,-1.8765 0.95945,-1.2773 1.88141,-2.4618 2.71047,-3.503 2.58647,-3.0932 4.64138,-5.4477 5.87666,-6.7262 -4.39926,-8.4207 -6.4495,-18.106 -5.08307,-27.5476 0.1106,-0.7747 0.25751,-1.5492 0.41818,-2.3216 z m -11.38856,27.3401 c 0.0138,0 0.0286,0.011 0.0454,0.021 0.0315,0.021 0.0677,0.055 0.10847,0.1022 0.0807,0.094 0.17948,0.2384 0.29507,0.4306 0.22625,0.3761 0.51827,0.9363 0.86586,1.651 0.66263,1.3625 1.51315,3.2555 2.53382,5.5514 1.10384,2.48 2.77724,6.4472 4.35153,9.6023 0.54592,1.0941 1.0977,2.136 1.66916,3.1387 1.84023,3.2661 4.72892,5.7968 6.7138,7.4212 1.18041,0.9619 2.20797,1.7165 2.9087,2.2503 0.37026,0.2821 0.66264,0.5118 0.85207,0.6834 0.0967,0.088 0.16848,0.1624 0.21295,0.2222 0.008,0.061 0.0195,0.096 0.0292,0.1167 0.009,0.02 0.0178,0.025 0.0193,0.026 -0.001,-6e-4 -0.0117,0 -0.0332,0 -0.0224,0 -0.057,0.016 -0.11,0.046 -0.0758,0 -0.17953,-0.018 -0.30994,-0.051 -0.255,-0.065 -0.60781,-0.1884 -1.04818,-0.377 -0.8344,-0.3574 -1.99025,-0.9493 -3.32408,-1.8102 -0.6792,-0.4363 -1.44562,-0.9768 -2.23964,-1.6008 -1.1762,1.0768 -2.33427,2.2022 -3.42505,3.37 -0.49746,0.5326 -0.97858,1.0687 -1.4431,1.6105 -1.35246,1.5657 -2.50076,3.4268 -3.55268,5.1243 -0.45217,-0.4844 -0.86288,-0.9398 -1.32781,-1.4802 0.94471,-1.6086 2.0246,-3.3531 3.3655,-4.9383 0.48347,-0.5679 0.98457,-1.1287 1.50305,-1.6827 1.08377,-1.1579 2.21861,-2.2492 3.36793,-3.2817 -1.37518,-1.2632 -2.74541,-2.8065 -3.85685,-4.6609 -0.61304,-1.0316 -1.19643,-2.1086 -1.75903,-3.2349 -0.0729,-0.1461 -0.14168,-0.2944 -0.21347,-0.4412 -1.37795,2.1042 -2.75976,4.329 -3.99368,6.5787 -0.35236,0.6424 -0.69169,1.2826 -1.01773,1.922 -0.55674,1.0886 -1.07395,2.2201 -1.56824,3.3422 -0.43282,-0.8162 -0.79184,-1.5046 -1.16227,-2.2223 0.30311,-0.676 0.61599,-1.3524 0.95233,-2.021 0.33379,-0.6617 0.68259,-1.3228 1.04577,-1.984 1.48741,-2.7084 3.1554,-5.2715 4.80418,-7.6187 -1.19767,-2.675 -2.19316,-5.3243 -2.9576,-7.4254 -0.86104,-2.3616 -1.51105,-4.3753 -1.91556,-5.8249 -0.21459,-0.7691 -0.36104,-1.3832 -0.43505,-1.818 -0.0378,-0.2218 -0.0564,-0.3964 -0.0554,-0.5204 5.6e-4,-0.063 0.006,-0.112 0.0165,-0.1483 0.011,-0.038 0.0277,-0.062 0.0504,-0.07 0.0108,0 0.0238,0 0.0375,-3e-4 z m -6.15724,22.3192 c 0.0132,5e-4 0.0271,0 0.0424,0.01 0.0286,0.01 0.0605,0.03 0.0958,0.058 0.0698,0.055 0.15281,0.144 0.24798,0.2642 0.18608,0.235 0.41988,0.5903 0.69396,1.0472 0.52098,0.8684 1.1776,2.0858 1.95701,3.5613 0.85038,1.6052 2.16936,4.2848 3.37628,6.2776 0.37319,0.6162 0.75209,1.2005 1.14443,1.7586 1.27044,1.8285 3.22853,3.7872 4.3236,4.9689 0.80744,0.8691 1.45636,1.5799 1.9061,2.1268 0.23853,0.2901 0.4173,0.5293 0.52639,0.7116 0.0558,0.093 0.0937,0.1721 0.11221,0.2351 -0.0143,0.06 -0.0167,0.097 -0.0153,0.1183 0.002,0.021 0.006,0.027 0.007,0.028 l -1.4e-4,6e-4 c -10e-4,-8e-4 -0.009,0 -0.029,0 -0.0214,0 -0.0568,0.011 -0.11341,0.035 -0.0653,-0.01 -0.14932,-0.033 -0.25135,-0.074 -0.19864,-0.08 -0.46384,-0.2217 -0.78661,-0.4209 -0.59999,-0.3703 -1.40876,-0.9458 -2.34273,-1.6953 -0.37628,-0.3005 -0.80955,-0.6558 -1.26889,-1.0504 -0.93752,1.5814 -1.83259,3.1245 -2.58234,4.4344 -0.95047,1.7325 -1.7571,3.1539 -2.48682,4.4133 -0.3155,-0.2168 -0.63026,-0.4452 -0.93427,-0.6786 0.57759,-1.2955 1.23528,-2.7372 2.04532,-4.4517 0.73597,-1.488 1.63207,-3.1968 2.59875,-4.9562 -0.79275,-0.7669 -1.59777,-1.6328 -2.30914,-2.5899 -0.43816,-0.5953 -0.85377,-1.2206 -1.25144,-1.8759 -0.20658,-0.3404 -0.40318,-0.6856 -0.59496,-1.0322 -0.97756,2.3073 -2.01368,4.7859 -2.76118,6.567 -0.59496,1.4176 -1.13124,2.6847 -1.61755,3.8153 -0.15508,-0.2253 -0.35054,-0.508 -0.48424,-0.6957 -0.14197,-0.2148 -0.26964,-0.3922 -0.4033,-0.5854 0.323,-0.9699 0.65786,-1.9668 1.0547,-3.0935 0.81528,-2.3146 1.81886,-5.0472 2.95211,-7.8937 0.0411,-0.1034 0.09,-0.2191 0.13273,-0.3251 -0.57555,-1.2213 -1.06165,-2.3893 -1.45491,-3.3708 -0.62782,-1.5587 -1.08634,-2.8963 -1.35818,-3.8689 -0.14452,-0.5171 -0.23688,-0.9339 -0.2743,-1.2333 -0.019,-0.1528 -0.0239,-0.2748 -0.0139,-0.3637 0.005,-0.045 0.0144,-0.081 0.0268,-0.1087 0.0141,-0.03 0.0311,-0.049 0.0538,-0.059 0.0111,0 0.0235,-0.01 0.0367,-0.01 z m -3.88612,19.3463 c 0.38147,0.1239 1.20441,1.1322 2.2247,2.6766 0.76091,1.0681 1.90223,2.8656 3.03487,4.0358 0.0915,0.094 0.18413,0.1865 0.27754,0.2759 1.13735,1.127 2.93908,2.1948 3.98955,2.9013 0.7567,0.505 1.374,0.9289 1.80829,1.2755 0.23005,0.1836 0.40496,0.3437 0.51676,0.4757 0.0572,0.068 0.0981,0.1285 0.12095,0.1816 -0.009,0.1221 0.009,0.1416 0.0116,0.1436 l -1.4e-4,7e-4 c -0.004,-8e-4 -0.03,-5e-4 -0.11584,0.086 -0.0556,0.018 -0.1292,0.025 -0.21935,0.025 -0.17518,-10e-4 -0.41271,-0.036 -0.7044,-0.1037 -0.54344,-0.1267 -1.2829,-0.3699 -2.1426,-0.7316 -0.57877,-0.2394 -1.29722,-0.5578 -2.05279,-0.9717 -0.54884,0.8494 -0.9153,1.3252 -1.02387,1.2826 -0.003,0 -0.003,0 -0.003,0 7e-5,10e-5 1.4e-4,3e-4 -0.003,0 -0.10028,-0.061 0.0751,-0.6507 0.4487,-1.6123 -0.6841,-0.4145 -1.3785,-0.9116 -2.01529,-1.5099 -0.11334,-0.1095 -0.22458,-0.2216 -0.3336,-0.3362 -0.69973,-0.7353 -1.27913,-1.5455 -1.76081,-2.3299 -0.24309,0.5167 -0.46488,0.9734 -0.63692,1.2913 -0.12858,0.2375 -0.23675,0.4172 -0.32264,0.5349 -0.0435,0.06 -0.0815,0.103 -0.11356,0.1304 -0.0358,0.01 -0.0556,0.014 -0.067,0.02 -0.0114,0.01 -0.0136,0.011 -0.0139,0.012 2.5e-4,-8e-4 0.002,-0.01 -0.004,-0.017 -0.005,-0.012 -0.0153,-0.031 -0.0383,-0.059 -0.007,-0.042 -0.007,-0.1 -0.002,-0.1736 0.0107,-0.1455 0.0443,-0.3524 0.10077,-0.6169 0.10597,-0.4954 0.29361,-1.2013 0.54962,-2.0745 -0.26221,-0.487 -0.48948,-0.9489 -0.67702,-1.35 -0.85608,-1.959 -1.25578,-3.3017 -0.96938,-3.4572 0.0357,-0.019 0.0811,-0.019 0.13561,0 z" /><g
           id="g49"
           transform="matrix(1.0343139,0.1873509,-0.1873509,1.0343139,-161.83217,-232.89354)"
           style="stroke:none;stroke-opacity:0.992157"><g
             style="fill:#fc93dd;fill-opacity:1;stroke:none;stroke-opacity:0.992157"
             transform="matrix(4.4279036,0,0,4.4279036,-1727.7917,-1116.3179)"
             id="g43"><path
               sodipodi:nodetypes="ssscsssscccccssccccccsss"
               d="m 616.39018,481.29184 c 0.3561,0.0938 5.09909,6.70355 2.68455,12.63726 -1.05606,2.59525 -2.61366,4.83504 -4.74321,6.0215 -1.1011,0.61347 -1.87323,0.18602 -1.87323,0.18602 0,0 0.095,0.72224 -1.12267,1.36175 -3.59196,1.88655 -8.13659,0.74404 -11.3474,-2.18782 -5.11191,-4.66779 -3.76176,-12.25158 1.59493,-11.20104 0.51681,0.10135 0.7892,0.36984 1.30574,0.88954 1.70432,1.71475 2.34101,3.87754 2.16276,4.71323 -0.26903,0.0865 0,0 0,0 l 0.539,-0.13335 c -0.40274,-2.02599 -0.61355,-3.20637 -2.62861,-5.16314 -0.10209,-0.099 -0.14999,-0.19948 -0.11921,-0.29698 0.69914,-3.82175 2.80977,-5.64451 6.91362,-3.52564 0.16081,0.0831 0.26293,0.15481 0.39439,0.23222 1.86303,1.09694 2.93506,4.45858 2.73354,5.4034 -0.26904,0.0865 0,0 0,0 l 0.53899,-0.13334 c -0.45529,-2.29038 -0.73174,-4.19144 -3.37055,-5.95655 -0.069,-0.049 -0.12982,-0.0712 -0.13003,-0.19582 0.23718,-4.19244 2.49913,-7.52096 7.9969,-6.27541 0,0 -1.84609,2.20778 -1.5297,3.62417 0,0 0,0 0,0 z"
               style="fill:#fc93dd;fill-opacity:1;stroke:none;stroke-width:0.288441;stroke-linecap:round;stroke-linejoin:round;stroke-dasharray:none;stroke-opacity:0.992157"
               id="path43" /></g><path
             transform="matrix(5.4067897,0,0,5.4067897,412.90126,507.10899)"
             clip-path="url(#clipPath99)"
             sodipodi:nodetypes="csssssccccccc"
             id="path44"
             d="m 109.40448,93.550612 c 0,0 2.44642,5.551638 -0.51004,10.880938 -0.57999,1.04548 -1.26279,2.19682 -2.3377,2.72024 -0.56105,0.2732 -0.98004,-0.0396 -1.53013,0.25501 -0.46463,0.24886 -0.81606,0.8461 -1.27511,1.1051 -1.6601,0.93663 -3.80172,0.7264 -5.695497,0.51004 -1.807259,-0.20648 -5.18545,-1.70014 -5.18545,-1.70014 l 2.592724,3.18777 7.039453,1.14728 7.21609,-2.27164 3.76602,-5.67623 -0.72256,-7.353136 z"
             style="fill:#fb6fd1;fill-opacity:1;stroke:none;stroke-width:0.600001;stroke-linecap:round;stroke-linejoin:round;stroke-opacity:0.992157" /><path
             transform="matrix(5.4067897,0,0,5.4067897,412.90126,507.10899)"
             clip-path="url(#clipPath169)"
             sodipodi:nodetypes="csscccc"
             id="path45"
             d="m 96.99341,99.203601 c 0,0 -1.942557,0.787194 -2.635229,1.530129 -0.570359,0.61175 -0.920309,1.43698 -1.105096,2.2527 -0.297384,1.31276 0.0425,4.03785 0.0425,4.03785 l -1.785154,-4.08035 1.275111,-4.675408 z"
             style="fill:#fdb6e8;fill-opacity:1;stroke:none;stroke-width:0.600001;stroke-linecap:round;stroke-linejoin:round;stroke-opacity:0.992157" /><path
             transform="matrix(5.4067897,0,0,5.4067897,412.90126,507.10899)"
             clip-path="url(#clipPath172)"
             sodipodi:nodetypes="cssccccc"
             id="path46"
             d="m 101.34426,95.693986 c 0,0 -0.99996,0.461124 -1.382514,0.841531 -0.609195,0.605775 -1.044887,1.391816 -1.35246,2.193988 -0.200498,0.522915 -0.300545,1.653005 -0.300545,1.653005 l -1.06694,-1.262295 1.142076,-2.945355 1.683063,-0.946721 z"
             style="fill:#fdb6e8;fill-opacity:1;stroke:none;stroke-width:0.600001;stroke-linecap:round;stroke-linejoin:round;stroke-opacity:0.992157" /><path
             transform="matrix(5.4067897,0,0,5.4067897,412.90126,507.10899)"
             clip-path="url(#clipPath175)"
             sodipodi:nodetypes="csssccccc"
             id="path47"
             d="m 109.90983,90.765026 c 0,0 -1.07983,0.106719 -1.59289,0.270491 -0.922,0.294309 -1.91309,0.595692 -2.61476,1.262295 -0.69559,0.660827 -1.03679,1.629595 -1.38251,2.524591 -0.20051,0.519059 -0.39071,1.622949 -0.39071,1.622949 l -0.78142,-0.631148 1.74317,-5.289616 2.52459,-0.420764 z"
             style="fill:#fdb6e8;fill-opacity:1;stroke:none;stroke-width:0.600001;stroke-linecap:round;stroke-linejoin:round;stroke-opacity:0.992157" /><g
             style="fill:none;fill-opacity:1;stroke:none;stroke-width:0.366322;stroke-dasharray:none;stroke-opacity:0.992157"
             transform="matrix(4.4279036,0,0,4.4279036,-1727.7917,-1116.3179)"
             id="g48"><path
               sodipodi:nodetypes="ssscsssscccccssccccccsss"
               d="m 616.39018,481.29184 c 0.3561,0.0938 5.09909,6.70355 2.68455,12.63726 -1.05606,2.59525 -2.61366,4.83504 -4.74321,6.0215 -1.1011,0.61347 -1.87323,0.18602 -1.87323,0.18602 0,0 0.095,0.72224 -1.12267,1.36175 -3.59196,1.88655 -8.13659,0.74404 -11.3474,-2.18782 -5.11191,-4.66779 -3.76176,-12.25158 1.59493,-11.20104 0.51681,0.10135 0.7892,0.36984 1.30574,0.88954 1.70432,1.71475 2.34101,3.87754 2.16276,4.71323 -0.26903,0.0865 0,0 0,0 l 0.539,-0.13335 c -0.40274,-2.02599 -0.61355,-3.20637 -2.62861,-5.16314 -0.10209,-0.099 -0.14999,-0.19948 -0.11921,-0.29698 0.69914,-3.82175 2.80977,-5.64451 6.91362,-3.52564 0.16081,0.0831 0.26293,0.15481 0.39439,0.23222 1.86303,1.09694 2.93506,4.45858 2.73354,5.4034 -0.26904,0.0865 0,0 0,0 l 0.53899,-0.13334 c -0.45529,-2.29038 -0.73174,-4.19144 -3.37055,-5.95655 -0.069,-0.049 -0.12982,-0.0712 -0.13003,-0.19582 0.23718,-4.19244 2.49913,-7.52096 7.9969,-6.27541 0,0 -1.84609,2.20778 -1.5297,3.62417 0,0 0,0 0,0 z"
               style="fill:none;fill-opacity:1;stroke:none;stroke-width:0.366322;stroke-linecap:round;stroke-linejoin:round;stroke-dasharray:none;stroke-opacity:0.992157"
               id="path48" /></g></g><path
           style="fill:#fddf99;fill-opacity:1;stroke:none;stroke-width:0.220079;stroke-opacity:0.992157;-inkscape-stroke:none"
           d="m 601.83656,1090.1878 c -32.75604,25.6896 -41.83851,45.181 -61.34072,68.3218 2.77156,4.4275 34.80159,-47.7081 63.84315,-57.7848 3.40349,-1.181 8.32414,-3.0827 11.54516,-2.9092 z"
           id="path49"
           sodipodi:nodetypes="ccscc" /></g><g
         id="g71"
         transform="matrix(1.0762569,0.08811978,-0.08811978,1.0762569,-71.296659,-83.983351)"
         style="stroke:#000000;stroke-opacity:0.992157"><g
           style="stroke:#000000;stroke-opacity:0.992157"
           transform="matrix(1.1753343,-0.46067594,0.46067594,1.1753343,583.34806,937.85992)"
           id="g53"><path
             sodipodi:nodetypes="ccccccccc"
             id="path50"
             d="m 118.33259,172.99119 c 4.97893,-5.23157 38.42279,-0.75214 42.29427,2.46357 2.44394,7.54931 -0.26957,13.76231 -1.94155,15.38787 -2.59535,1.23974 -9.98867,-0.26165 -15.29829,-2.59542 3.55163,8.36901 4.0925,20.09007 2.3778,23.97308 -4.21583,2.01441 -15.49203,1.01059 -20.03198,-2.0782 -2.32544,-5.11216 -0.43535,-15.99105 4.67347,-23.17359 -2.39361,0.36259 -10.27958,2.13732 -13.36938,0.27289 -2.41838,-3.00613 -2.39883,-9.24583 1.29566,-14.2502 z"
             style="fill:#f1aed1;fill-opacity:1;stroke:#000000;stroke-width:1.3;stroke-linecap:round;stroke-linejoin:round;stroke-dasharray:none;stroke-opacity:0.992157" /><path
             sodipodi:nodetypes="cssccssscccccccccccssccccccc"
             id="path51"
             d="m 157.50803,174.14823 c 1.08088,3.98838 2.46609,10.23464 -0.38253,13.57992 -1.98231,1.85414 -4.02902,1.54604 -7.55503,1.19542 -1.74467,-0.17349 -5.83363,-0.71725 -5.83363,-0.71725 l -0.91717,-0.0793 c 0.1574,6.9905 3.33828,16.80183 0.0565,21.16641 -0.73239,0.97402 -3.81212,1.12523 -6.74214,1.33886 -3.08687,0.22508 -7.79554,-0.69092 -9.81433,-2.48888 -0.72283,-0.64376 -1.35246,-2.56967 -1.35246,-2.56967 l 0.27049,4.125 2.90779,1.69057 6.08607,1.35246 10.07582,0.0676 1.89344,-1.82581 0.27049,-1.89345 0.13525,-8.62192 -0.84529,-4.09119 -1.08197,-4.73361 -0.50717,-2.90779 c 0,0 2.09631,0.60861 2.26537,0.64242 0.16906,0.0338 8.28381,1.85963 8.5543,1.85963 0.27049,0 3.58402,-0.54098 3.58402,-0.54098 l 1.75819,-3.11066 0.81148,-3.2459 0.27049,-3.65164 0.0676,-2.56967 -0.94672,-3.04303 z"
             style="opacity:1;fill:#bd84a2;fill-opacity:1;stroke:#000000;stroke-width:0;stroke-linecap:round;stroke-linejoin:round;stroke-dasharray:none;stroke-opacity:0.992157" /><path
             sodipodi:nodetypes="cscccccc"
             id="path52"
             d="m 147.22745,172.42683 c 0,0 -7.94855,-0.70407 -11.90634,-0.38254 -1.9753,0.16047 -5.83363,1.1476 -5.83363,1.1476 l -9.27643,1.62577 10.99783,-3.92096 4.39913,-0.19127 11.57163,1.1476 z"
             style="opacity:1;fill:#fbe6f1;fill-opacity:1;stroke:#000000;stroke-width:0;stroke-linecap:round;stroke-linejoin:round;stroke-dasharray:none;stroke-opacity:0.992157" /><path
             sodipodi:nodetypes="ccccccccc"
             id="path53"
             d="m 118.33259,172.99119 c 4.97893,-5.23157 38.42279,-0.75214 42.29427,2.46357 2.44394,7.54931 -0.26957,13.76231 -1.94155,15.38787 -2.59535,1.23974 -9.98867,-0.26165 -15.29829,-2.59542 3.55163,8.36901 4.0925,20.09007 2.3778,23.97308 -4.21583,2.01441 -15.49203,1.01059 -20.03198,-2.0782 -2.32544,-5.11216 -0.43535,-15.99105 4.67347,-23.17359 -2.39361,0.36259 -10.27958,2.13732 -13.36938,0.27289 -2.41838,-3.00613 -2.39883,-9.24583 1.29566,-14.2502 z"
             style="fill:none;fill-opacity:1;stroke:#000000;stroke-width:1.3;stroke-linecap:round;stroke-linejoin:round;stroke-dasharray:none;stroke-opacity:0.992157" /></g><g
           style="stroke:#000000;stroke-opacity:0.992157"
           transform="matrix(0.94432511,-0.03930468,0.03930468,0.94432511,570.45902,1286.1609)"
           id="g57"><path
             sodipodi:nodetypes="cccsscccccsccc"
             id="path54"
             d="m 229.33183,-200.67127 c -5.76237,6.37181 -3.67151,49.32379 -1.46243,55.24398 3.17754,4.00534 19.41343,3.0887 21.96247,0 1.40306,-1.99398 2.58908,-11.41164 -0.0407,-17.36176 -0.0592,-0.13382 0.0134,-0.54912 -0.12088,-0.59591 -0.94061,-0.32932 -1.93946,-0.55966 -3.3061,-0.92236 6.86829,2.33903 13.29949,1.07247 15.41227,-0.3853 2.47826,-1.76736 4.94088,-10.37628 1.26557,-16.02745 0,0 -3.8308,0.25976 -7.07765,0.11366 -3.86109,-0.15745 -8.44428,-0.65446 -8.44428,-0.65446 15.5762,1.68152 21.95849,-0.16267 25.36234,-2.12532 5.10607,-2.94411 4.35116,-17.18071 1.99444,-20.99309 -16.20189,-3.78171 -33.06799,-1.24639 -45.54499,3.70797 z"
             style="fill:#94e9e8;fill-opacity:1;stroke:#000000;stroke-width:1.73636;stroke-linecap:round;stroke-linejoin:round;stroke-dasharray:none;stroke-opacity:0.992157" /><path
             sodipodi:nodetypes="csssccssscssccccccccccccccccccccccc"
             id="path55"
             d="m 271.77021,-205.18515 c 0,0 0.79463,6.36314 0.57868,10.20963 -0.15274,2.72089 0.45174,6.02825 -1.916,7.94784 -4.19442,3.40049 -11.14251,2.50183 -18.4594,3.97148 -1.63018,0.32742 -4.91588,1.7482 -4.91588,1.7482 l 11.24057,0.63867 c 0,0 2.03474,1.63624 2.42696,2.81014 1.00072,2.9952 1.52377,7.1509 -0.63868,9.4523 -2.70505,2.87887 -6.37078,2.56105 -9.76444,2.97795 -0.89846,0.11032 -3.77534,0.59859 -3.77534,0.59859 0.77008,3.39435 3.01491,14.45875 0.25547,17.24407 -3.39683,3.42869 -14.87429,2.05792 -17.24406,0.7664 -0.98703,-0.53792 -2.04375,-2.68241 -2.04375,-2.68241 l 0.12769,4.21522 2.61854,1.53281 6.51442,1.08573 8.94137,-0.63868 4.08749,-1.72439 1.21347,-3.44881 0.76639,-7.1531 -1.53279,-5.68416 v -1.66053 l 3.95974,0.25547 5.87576,-1.02188 2.81014,-2.17147 1.5328,-3.89588 0.44708,-3.95975 -0.12769,-2.874 -1.40507,-4.0875 9.38844,-2.36307 2.36306,-1.97987 1.85214,-8.8775 -0.57481,-6.51442 -1.66053,-4.08749 z"
             style="fill:#7fc6c5;fill-opacity:1;stroke:#000000;stroke-width:0;stroke-linecap:round;stroke-linejoin:round;stroke-dasharray:none;stroke-opacity:0.992157" /><path
             sodipodi:nodetypes="cssssccccccc"
             id="path56"
             d="m 263.32168,-206.16507 c 0,0 -12.35555,2.14259 -16.43851,2.79996 -4.68472,0.75424 -10.61956,1.78176 -14.36111,4.78703 -1.40915,1.13185 -2.09421,2.99729 -2.70965,4.69672 -1.56067,4.30952 -1.68673,9.01281 -2.34836,13.54822 -0.51643,3.54009 -1.26449,10.65792 -1.26449,10.65792 l -0.72258,-12.10307 1.98707,-14.27078 1.80643,-4.51608 3.25158,-1.80642 12.23635,-2.69492 z"
             style="fill:#d4f6f6;fill-opacity:1;stroke:#000000;stroke-width:0;stroke-linecap:round;stroke-linejoin:round;stroke-dasharray:none;stroke-opacity:0.992157" /><path
             sodipodi:nodetypes="cccsscccccsccc"
             id="path57"
             d="m 229.33183,-200.67127 c -5.76237,6.37181 -3.67151,49.32379 -1.46243,55.24398 3.17754,4.00534 19.41343,3.0887 21.96247,0 1.40306,-1.99398 2.58908,-11.41164 -0.0407,-17.36176 -0.0592,-0.13382 0.0134,-0.54912 -0.12088,-0.59591 -0.94061,-0.32932 -1.93946,-0.55966 -3.3061,-0.92236 6.86829,2.33903 13.29949,1.07247 15.41227,-0.3853 2.47826,-1.76736 4.94088,-10.37628 1.26557,-16.02745 0,0 -3.8308,0.25976 -7.07765,0.11366 -3.86109,-0.15745 -8.44428,-0.65446 -8.44428,-0.65446 15.5762,1.68152 21.95849,-0.16267 25.36234,-2.12532 5.10607,-2.94411 4.35116,-17.18071 1.99444,-20.99309 -16.20189,-3.78171 -33.06799,-1.24639 -45.54499,3.70797 z"
             style="fill:none;fill-opacity:1;stroke:#000000;stroke-width:1.73636;stroke-linecap:round;stroke-linejoin:round;stroke-dasharray:none;stroke-opacity:0.992157" /></g><g
           style="stroke:#000000;stroke-opacity:0.992157"
           transform="matrix(1.2293173,0.28707463,-0.28707463,1.2293173,714.88425,862.28543)"
           id="g62"><path
             sodipodi:nodetypes="ccscsssssssccsscsssc"
             id="path58"
             d="m 61.583975,169.57311 c 0.421376,4.54263 -0.832803,11.70123 -6.659865,15.35123 0,0 -5.913828,-2.29687 -9.792899,-3.08405 -1.975854,-0.40097 -7.891498,-0.36554 -7.891498,-0.36554 0,0 3.926408,-0.1834 7.925604,0.34653 2.56366,0.3397 3.132111,0.72537 5.999001,1.6541 1.307261,0.42349 2.79546,1.18782 3.808514,1.31548 0.796028,0.10031 2.292886,-2.21627 3.045639,-2.04501 3.147307,0.71603 5.994651,1.77472 7.960998,3.32725 4.990354,3.94013 7.072742,9.86046 4.530735,15.68853 -3.451664,7.91364 -13.542421,11.45715 -21.639341,11.09017 -18.121596,-0.82133 -26.835876,-6.80191 -26.835876,-6.80191 0.175063,-5.03972 1.811326,-10.7291 5.595796,-13.56555 0.881824,0.55913 2.06161,0.97473 3.071507,1.31912 4.210122,1.43574 10.452833,1.83827 14.388661,1.78568 6.448754,-0.0862 9.189746,-0.5898 9.189746,-0.5898 0.352704,-0.0672 -17.702072,2.30876 -25.967213,-2.16394 -5.862114,-3.1723 -8.594066,-11.24917 -6.565396,-17.59837 3.106894,-9.72376 14.278388,-13.60758 24.417855,-12.42622 11.833094,1.37868 15.418032,6.7623 15.418032,6.7623 z"
             style="fill:#d1fd99;fill-opacity:1;stroke:#000000;stroke-width:1.3;stroke-linecap:round;stroke-linejoin:round;stroke-dasharray:none;stroke-opacity:0.992157" /><path
             sodipodi:nodetypes="csssccccccccccsssccccccccccccccc"
             id="path59"
             d="m 57.952869,166.96106 c 0,0 1.078925,3.38066 0.811475,5.07172 -0.54173,3.4253 -1.629783,7.71761 -4.733608,9.26435 -2.683311,1.33718 -6.272635,-0.88731 -9.264345,-1.08197 -3.878514,-0.25236 -7.438522,1.01435 -7.438522,1.01435 l 4.733607,0.40573 3.854508,0.13525 6.762295,2.29918 2.028687,0.8791 1.893443,-0.81148 1.217213,-1.4877 3.245901,1.21721 7.641394,16.43238 -1.420082,3.51639 c 0,0 -5.346931,4.17508 -8.520491,5.13935 -5.484228,1.66635 -11.471815,1.37106 -17.176229,0.81147 -5.583381,-0.54772 -17.624364,-4.976 -17.886271,-5.57889 -0.320639,-0.73808 -0.43955,-4.29406 -0.43955,-4.29406 l -1.284835,6.22131 4.327869,2.23156 7.438524,2.50205 12.84836,2.09631 8.655737,-0.54098 7.032787,-2.16394 5.004099,-3.51639 1.622951,-1.89344 1.014344,-4.3955 -0.06762,-7.57377 -10.27869,-12.30737 1.758199,-5.61271 0.405736,-5.40983 z"
             style="opacity:1;fill:#b3db81;fill-opacity:1;stroke:#000000;stroke-width:0;stroke-linecap:round;stroke-linejoin:round;stroke-dasharray:none;stroke-opacity:0.992157" /><path
             sodipodi:nodetypes="ccscssscccsssc"
             id="path60"
             d="m 61.583975,169.57311 c 0.421376,4.54263 -0.832803,11.70123 -6.659865,15.35123 0,0 -5.913828,-2.29687 -9.792899,-3.08405 -1.975854,-0.40097 -7.891498,-0.36554 -7.891498,-0.36554 0,0 21.070587,-1.45683 28.739756,4.59835 4.99035,3.94013 7.072742,9.86046 4.530735,15.68853 -3.451664,7.91364 -13.542421,11.45715 -21.639341,11.09017 -18.121596,-0.82133 -26.835876,-6.80191 -26.835876,-6.80191 0.218317,-6.28492 3.062327,-13.87761 8.983415,-15.24317 l 23.262295,4.19262 c 0,0 -18.630773,2.48566 -25.967213,-2.16394 -5.629973,-3.56809 -8.594066,-11.24917 -6.565396,-17.59837 3.106894,-9.72376 14.278388,-13.60758 24.417855,-12.42622 11.833094,1.37868 15.418032,6.7623 15.418032,6.7623 z"
             style="fill:none;fill-opacity:1;stroke:#000000;stroke-width:0;stroke-linecap:round;stroke-linejoin:round;stroke-dasharray:none;stroke-opacity:0.992157" /><path
             sodipodi:nodetypes="csssscccccccc"
             id="path61"
             d="m 48.486081,163.1504 c 0,0 -6.661874,0.0256 -9.850231,0.8607 -3.588289,0.9399 -7.064781,2.57105 -9.90045,4.96233 -1.862009,1.57021 -3.016625,3.72347 -4.004,5.45348 -1.628756,2.85381 -1.960211,6.47803 -1.875043,9.76281 0.03651,1.40793 0.382533,4.20787 0.382533,4.20787 l -2.199565,-7.65067 0.669432,-6.50306 4.303499,-6.21616 6.503064,-3.53844 6.311797,-1.53013 7.650662,-0.0956 z"
             style="opacity:1;fill:#eafed2;fill-opacity:1;stroke:#000000;stroke-width:0;stroke-linecap:round;stroke-linejoin:round;stroke-dasharray:none;stroke-opacity:0.992157" /><path
             sodipodi:nodetypes="ccscsssssssccsscsssc"
             id="path62"
             d="m 61.583975,169.57311 c 0.421376,4.54263 -0.832803,11.70123 -6.659865,15.35123 0,0 -5.913828,-2.29687 -9.792899,-3.08405 -1.975854,-0.40097 -7.891498,-0.36554 -7.891498,-0.36554 0,0 3.926408,-0.1834 7.925604,0.34653 2.56366,0.3397 3.132111,0.72537 5.999001,1.6541 1.307261,0.42349 2.79546,1.18782 3.808514,1.31548 0.796028,0.10031 2.292886,-2.21627 3.045639,-2.04501 3.147307,0.71603 5.994651,1.77472 7.960998,3.32725 4.990354,3.94013 7.072742,9.86046 4.530735,15.68853 -3.451664,7.91364 -13.542421,11.45715 -21.639341,11.09017 -18.121596,-0.82133 -26.835876,-6.80191 -26.835876,-6.80191 0.175063,-5.03972 1.811326,-10.7291 5.595796,-13.56555 0.881824,0.55913 2.06161,0.97473 3.071507,1.31912 4.210122,1.43574 10.452833,1.83827 14.388661,1.78568 6.448754,-0.0862 9.189746,-0.5898 9.189746,-0.5898 0.352704,-0.0672 -17.702072,2.30876 -25.967213,-2.16394 -5.862114,-3.1723 -8.594066,-11.24917 -6.565396,-17.59837 3.106894,-9.72376 14.278388,-13.60758 24.417855,-12.42622 11.833094,1.37868 15.418032,6.7623 15.418032,6.7623 z"
             style="fill:none;fill-opacity:1;stroke:#000000;stroke-width:1.3;stroke-linecap:round;stroke-linejoin:round;stroke-dasharray:none;stroke-opacity:0.992157" /></g><g
           style="stroke:#000000;stroke-opacity:0.992157"
           transform="matrix(1.2623916,0,0,1.2623916,653.20493,872.95548)"
           id="g70"><path
             sodipodi:nodetypes="sssssssssssssssssssss"
             id="path64"
             d="m 78.152741,225.96062 c 2.205152,0.003 1.691514,-2.33559 1.679561,-4.04342 -0.02914,-4.19326 -0.462197,-7.30307 1.244135,-9.95303 1.35642,-2.10653 4.590847,-0.73434 6.593865,-2.23942 1.22268,-0.91872 1.66619,-2.71071 2.98591,-3.48358 1.45978,-0.85488 3.29306,-0.82859 4.97651,-0.99528 1.91901,-0.18986 4.31489,1.36477 5.785198,0 1.21731,-1.12994 -0.64343,-2.67415 -0.0622,-4.23004 0.50294,-1.34629 1.69057,-2.71516 2.23942,-4.04341 1.69488,-4.10179 1.6657,-8.81625 0.99531,-12.37909 -1.43806,-7.64262 -11.440628,-16.71991 -20.279286,-16.42246 -16.462872,0.554 -22.329885,7.90058 -26.002257,16.92014 -1.856253,4.55907 1.698502,13.26886 2.488246,14.55627 0.727172,1.18543 -0.591548,2.89103 0.186617,4.16785 0.872591,1.43174 3.443473,-0.69092 4.292242,-0.6843 2.412691,0.0206 2.806328,3.08589 3.919004,3.608 1.464163,0.68707 2.7073,-1.26281 4.043413,-0.74649 2.797909,1.08116 3.203488,4.46266 3.732385,7.09154 0.629354,3.12816 -0.320227,7.14948 -0.559859,9.95302 -0.144966,1.69612 -0.457213,2.91926 1.741786,2.9237 z"
             style="fill:#fddf99;fill-opacity:1;stroke:#000000;stroke-width:1.3;stroke-dasharray:none;stroke-opacity:0.992157" /><path
             transform="matrix(1.3009357,0,0,1.3009357,-165.01201,-18.821499)"
             clip-path="url(#clipPath5-5)"
             sodipodi:nodetypes="caaacc"
             id="path66"
             d="m 187.24999,141.34601 c 0,0 10.86805,4.28289 12.62359,9.18079 1.80005,5.02208 0.30248,12.36098 -4.0166,15.4926 -4.96476,3.59978 -12.98635,1.80435 -18.36159,-1.1476 -4.56055,-2.50454 -9.18079,-12.6236 -9.18079,-12.6236 3.68911,-7.46722 2.88008,-21.50864 18.93539,-10.90219 z"
             style="fill:#feebb3;fill-opacity:1;stroke:#000000;stroke-width:0;stroke-dasharray:none;stroke-opacity:0.992157" /><path
             sodipodi:nodetypes="aassa"
             id="path68"
             d="m 70.252523,173.33401 c -0.817625,0.40959 -1.858804,1.46353 -1.492953,2.30163 0.387326,0.8873 2.228422,0.85099 2.861497,0.49766 0.546186,-0.30483 1.845965,-2.05309 1.430743,-2.61267 -0.557269,-0.75099 -1.963162,-0.60546 -2.799287,-0.18662 z"
             style="fill:#f9f9f9;fill-opacity:1;stroke:#000000;stroke-width:0;stroke-dasharray:none;stroke-opacity:0.992157" /><path
             sodipodi:nodetypes="aaaaa"
             id="path70"
             d="m 73.549458,176.38213 c -0.403277,0.28334 -0.667302,1.03521 -0.373239,1.43074 0.334264,0.44961 1.267438,0.44168 1.679572,0.0622 0.335928,-0.30932 0.36239,-1.02443 0.0622,-1.36853 -0.30113,-0.34517 -0.993733,-0.38773 -1.36852,-0.12436 z"
             style="fill:#f9f9f9;fill-opacity:1;stroke:#000000;stroke-width:0;stroke-dasharray:none;stroke-opacity:0.992157" /></g></g></g></g></svg>
